<svg xmlns="http://www.w3.org/2000/svg" id="Hosting_icons" data-name="Hosting icons" viewBox="0 0 50 50"><defs><style>.cls-3{fill:#5d43ac}.cls-4{fill:#ff775c}</style></defs><circle cx="24.19" cy="24.22" r="18.06" fill="#e9eaeb"/><path d="M8.13 23.11l-5.15 8.92 5.15 8.91h10.29l5.15-8.91-5.15-8.92H8.13zM32.61 9.06l-5.15 8.91 5.15 8.92H42.9l5.15-8.92-5.15-8.91H32.61z" fill="#cad4ff"/><path class="cls-3" d="M19.73 42.3l5.67-9.82a.92.92 0 000-.91l-5.67-9.82a.9.9 0 00-.79-.45H7.6a.9.9 0 00-.78.45l-5.67 9.82a.92.92 0 000 .91l5.67 9.82a.91.91 0 00.78.46h11.34a.91.91 0 00.79-.46zm-11.6-1.36L3 32l5.15-8.92h10.27L23.57 32l-5.15 8.91zm41.75-23.42L44.21 7.7a.91.91 0 00-.79-.46H32.08a.91.91 0 00-.78.46l-5.67 9.82a.86.86 0 000 .9l5.67 9.83a.9.9 0 00.78.45h11.34a.9.9 0 00.79-.45l5.67-9.83a.9.9 0 000-.9zm-7 9.37H32.61L27.46 18l5.15-8.91H42.9L48.05 18z"/><path class="cls-3" d="M38.23 32.94a.91.91 0 000-1.82h-7.95L22.62 18l7.66-13.18h7.95a.91.91 0 000-1.81h-8.47a.9.9 0 00-.79.45l-7.92 13.6h-8a.91.91 0 100 1.82h8L28.71 32l-7.66 13.18h-8a.91.91 0 100 1.81h8.47a.91.91 0 00.79-.45l7.92-13.6z"/><path class="cls-4" d="M1.93 18.88H5a.91.91 0 100-1.82H1.93a.91.91 0 000 1.82zm42.81 12.24h-3.05a.91.91 0 000 1.82h3.05a.91.91 0 000-1.82zm-4.9 5.43h-7a.91.91 0 000 1.82h7a.91.91 0 100-1.82z"/><path class="cls-3" d="M11.24 37.59l-3.47-6.11a.89.89 0 00-1.23-.34.9.9 0 00-.35 1.23l3.47 6.11a.91.91 0 001.58-.89zM41.4 24l3.6-6.06a.91.91 0 00-1.62-.94l-3.55 6.07a.91.91 0 001.57.93z"/><path class="cls-4" d="M37.22 41.85h-7a.91.91 0 100 1.81h7a.91.91 0 000-1.81zM.91 13.54h7a.91.91 0 100-1.81h-7a.91.91 0 100 1.81zM7.66 7.7h7a.91.91 0 000-1.82h-7a.91.91 0 000 1.82z"/></svg>