<svg width="190" height="123" xmlns:xlink="http://www.w3.org/1999/xlink" xmlns="http://www.w3.org/2000/svg"><defs><linearGradient x1="0" y1=".551" x2="1" y2=".551" id="c"><stop offset="0" stop-color="#3E3E5F"/><stop offset="1" stop-color="#1F1F22" stop-opacity="0"/></linearGradient><linearGradient x1=".661" y1=".418" x2="-1.142" y2="1.1" id="d"><stop offset="0" stop-color="#FFF"/><stop offset="1" stop-color="#CFD3E6"/></linearGradient><linearGradient x1="2.981" y1="-.679" x2="-.333" y2=".873" id="e"><stop offset="0" stop-color="#FFF"/><stop offset="1" stop-color="#CFD3E6"/></linearGradient><linearGradient x1=".489" y1=".934" x2=".489" y2="-1.959" id="f"><stop offset="0" stop-color="#FFF"/><stop offset="1" stop-color="#CFD3E6"/></linearGradient><linearGradient x1="-.867" y1="0" x2="1" y2=".783" id="g"><stop offset="0" stop-color="#82A9FB"/><stop offset="1" stop-color="#90ADFF"/></linearGradient><linearGradient x1="-1.909" y1="-.041" x2="1" y2=".758" id="h"><stop offset="0" stop-color="#ACBFE9"/><stop offset="1" stop-color="#325FE1"/></linearGradient><clipPath id="b"><use xlink:href="#a"/></clipPath><path d="M10.948 35.438L92.144.824q.23-.098.467-.172.237-.075.48-.125.244-.05.492-.076.247-.026.496-.028.249-.001.496.022.248.024.492.072.244.048.482.12.238.071.468.167L178.78 35.07q.171.07.335.154.165.082.323.177.159.095.309.201.151.107.294.224.142.117.276.244.133.128.257.264.124.137.237.282.114.146.216.3.102.153.193.314.091.16.169.327.079.167.145.34.066.171.12.348.053.177.093.357t.067.362q.027.183.04.367.013.184.013.368-.001.185-.015.369-.014.183-.041.366-.028.182-.068.362-.041.18-.095.357-.054.176-.121.348t-.146.338q-.08.167-.171.327-.092.16-.195.313-.103.153-.217.298t-.238.282q-.124.136-.258.263-.134.126-.277.243-.143.116-.295.222-.151.106-.31.2-.158.094-.323.176-.165.083-.336.152L95.903 78.221q-.453.185-.933.28-.48.093-.97.092-.49 0-.969-.097-.48-.095-.932-.282l-81.102-33.56q-.169-.07-.333-.152-.164-.083-.321-.177-.157-.094-.307-.2-.15-.104-.292-.22-.142-.117-.275-.243-.133-.126-.257-.261-.123-.136-.236-.28-.114-.145-.216-.297t-.193-.311q-.09-.16-.17-.325-.079-.165-.146-.336-.066-.171-.12-.346-.054-.175-.095-.354-.04-.179-.069-.36-.027-.181-.042-.364-.014-.183-.015-.366-.001-.184.011-.367.013-.182.039-.364.025-.181.064-.36.04-.18.092-.356.052-.175.116-.347.065-.172.142-.338.078-.166.167-.326.089-.16.19-.314.1-.153.212-.298.112-.146.234-.283.122-.137.253-.264.132-.128.273-.245.14-.118.29-.225.148-.107.304-.203.157-.096.32-.18.163-.084.331-.156z" transform="translate(0 44)" id="a"/></defs><use fill="#FAFBFD" fill-opacity=".496" xlink:href="#a"/><g clip-path="url(#b)"><use xlink:href="#a" fill="none" stroke="#000" stroke-opacity=".496" stroke-width="2"/></g><path d="M38.661 0l38.661 16.56-38.66 15.767L0 16.561 38.661 0z" transform="translate(53 73.001)" fill="url(#c)" fill-opacity=".733"/><path d="M0 0l25.726 10.106v27.308l12.698 5.298.237 15.403v15.041L0 57.39V0z" transform="matrix(-1 0 0 1 130.32 15.775)" fill="url(#d)"/><path d="M0 0l38.898 14.964v27.553l-.237 15.404v15.041L0 57.195V0z" transform="translate(53 15.97)" fill="url(#e)"/><path d="M36.604 0l40.718 15.89-25.726 10.107-12.698-5.167-13.135 5.408-13.045-5.43L0 15.89 36.604 0z" transform="translate(53)" fill="url(#f)"/><path d="M91.901 20.83l12.718 5.167L91.9 30.934l-13.213-4.695L91.9 20.83zM60.966 8.26l12.92 5.538-13.188 5.167L48 13.798 60.966 8.26z" fill="#CBD9FF"/><path d="M64.866 17.146l18.19 7.397-4.296 1.695-18.065-7.274 4.171-1.818z" fill="#CBD9FF"/><path d="M12.717 4.937V32.49L0 27.193.02 0l12.697 4.937z" transform="matrix(-1 0 0 1 104.617 25.997)" fill="url(#g)"/><path d="M15.33 1.028V27.42L.02 21.16 0 12.46l12.723 5.095V0l2.608 1.028z" transform="matrix(-1 0 0 1 130.328 49.715)" fill="url(#g)"/><path d="M122 28.283v.6l15-5.462v-.59l-15 5.452zm0-1v.6l15-5.462v-.59l-15 5.452zm0-1v.6l15-5.462v-.59l-15 5.452zm0 3v.6l15-5.462v-.59l-15 5.452zM53 61.13l25.768 10.506v12.041L53 73.165V61.13z" fill="#F2444E" style="mix-blend-mode:multiply"/><path d="M0 0l44 17.136-.102 27.554-13.135-4.934-.13-25.55-12.935-5.015v13.017L0 15.034V0z" transform="translate(48 13.798)" fill="url(#h)"/></svg>