<svg xmlns="http://www.w3.org/2000/svg" width="283.465" height="141.732" viewBox="7.984 0.992 283.465 141.732"><path fill="#0164A5" d="M105.33 32.095c-6.493-3.981-12.513-5.498-18.77-9.764-3.744-2.512-9.006-8.769-13.508-14.03-.758 8.532-3.507 11.755-6.257 14.267-6.257 5.024-10.238 6.257-15.499 9.243-4.503 2.275-29.007 17.016-29.007 48.535s26.543 54.792 56.072 54.792 55.076-21.519 55.076-53.796-24.078-46.972-28.107-49.247zm.759 91.857c-.521.521-6.257 4.503-12.75 5.261-6.493.521-15.499.995-21.045-3.981-.758-.758-.521-1.991 0-2.512.521-.521.995-.758 1.754-.758s.521 0 .995.237c2.512 1.991 6.02 3.507 14.03 3.507 7.773 0 13.271-2.275 15.783-3.981.995-.758 1.517 0 1.754.237.237.52.474.994-.521 1.99zm-21.282-11.234c1.232-1.232 3.507-3.27 5.498-3.981 1.991-.758 3.27-.758 5.261-.758s3.981 0 5.498.995c1.517.995 2.275 3.27 2.749 4.503.474 1.232 0 1.991-.995 2.512-.758.521-.995.237-1.754-1.232-.758-1.517-1.517-3.27-5.735-3.27-4.266 0-5.498 1.517-7.773 3.27-1.991 1.754-2.749 2.275-3.507 1.232-.996-1.043-.759-2.038.758-3.271zm32.278.996c-4.503-.237-13.271-14.03-18.77-14.267-7.015-.237-22.514 14.788-34.553 14.788-7.252 0-9.527-.995-11.992-2.749-3.744-2.512-5.498-6.493-5.498-11.755 0-9.527 9.006-18.533 20.286-18.533 14.267 0 24.268 14.267 31.52 14.03 6.02 0 17.774-11.992 23.509-11.992 6.02 0 7.773 6.257 7.773 10.238s-1.232 10.759-4.266 15.025c-2.748 3.935-4.502 5.452-8.009 5.215z"/><path fill="#FFF" d="M247.063 32.095c-6.493-3.981-12.513-5.498-18.77-9.764-3.744-2.512-9.006-8.769-13.508-14.03-.758 8.532-3.507 11.755-6.257 14.267-6.257 5.024-10.238 6.257-15.499 9.243-4.503 2.275-29.007 17.016-29.007 48.535s26.543 54.792 56.072 54.792 55.076-21.519 55.076-53.796-24.079-46.972-28.107-49.247zm.758 91.857c-.521.521-6.257 4.503-12.75 5.261-6.493.521-15.499.995-21.045-3.981-.758-.758-.521-1.991 0-2.512.521-.521.995-.758 1.754-.758.758 0 .521 0 .995.237 2.512 1.991 6.02 3.507 14.03 3.507 7.773 0 13.271-2.275 15.783-3.981.995-.758 1.517 0 1.754.237.237.52.474.994-.521 1.99zm-21.282-11.234c1.232-1.232 3.507-3.27 5.498-3.981 1.991-.758 3.27-.758 5.261-.758s3.981 0 5.498.995c1.517.995 2.275 3.27 2.749 4.503.474 1.232 0 1.991-.995 2.512-.758.521-.995.237-1.754-1.232-.758-1.517-1.517-3.27-5.735-3.27-4.266 0-5.498 1.517-7.773 3.27-1.991 1.754-2.749 2.275-3.507 1.232-.995-1.043-.758-2.038.758-3.271zm32.278.996c-4.503-.237-13.271-14.03-18.77-14.267-7.015-.237-22.514 14.788-34.553 14.788-7.252 0-9.527-.995-11.992-2.749-3.744-2.512-5.498-6.493-5.498-11.755 0-9.527 9.006-18.533 20.286-18.533 14.267 0 24.268 14.267 31.52 14.03 6.02 0 17.774-11.992 23.509-11.992 6.02 0 7.773 6.257 7.773 10.238s-1.232 10.759-4.266 15.025c-2.748 3.935-4.501 5.452-8.009 5.215z"/></svg>