<svg xmlns="http://www.w3.org/2000/svg" width="283.465" height="141.732" viewBox="7.984 0.992 283.465 141.732"><path fill="#78BC43" d="M37.203 72.542l-2.484-2.484c-7.604-7.604-9.835-18.351-6.945-28.033-7.604-1.774-13.231-8.516-13.231-16.577A17.005 17.005 0 0131.576 8.415c8.516 0 15.461 6.286 16.83 14.346 9.175-2.231 19.263.456 26.462 7.401l.912.912-12.571 12.522-.912-.912c-4.055-4.055-10.747-4.055-14.802 0s-4.055 10.747 0 14.802l2.484 2.484L62.55 72.542l13.23 13.231-12.571 12.572-13.231-13.231-12.775-12.572"/><path fill="#F6B333" d="M51.296 58.399l13.231-13.231 12.572-12.572 2.484-2.484c7.604-7.604 18.351-9.835 27.78-7.148 1.115-8.314 8.314-14.549 16.83-14.549a17.005 17.005 0 0117.033 17.033c0 8.516-6.489 15.664-14.802 16.83 2.687 9.632.456 20.176-7.148 27.78l-.912.912-12.572-12.572.912-.912c4.055-4.055 4.055-10.747 0-14.802s-10.544-4.055-14.802 0l-2.484 2.484-12.32 12.572-13.23 13.231-12.572-12.572"/><path fill="#EF3942" d="M107.768 121.613c-9.632 2.89-20.632.659-28.236-6.945l-.912-.912 12.572-12.572.912.912c4.055 4.055 10.747 4.055 14.802 0s4.055-10.544 0-14.802l-2.484-2.484L91.85 72.238 78.619 59.007l12.572-12.471 13.231 13.231 12.572 12.572 2.484 2.484c7.148 7.148 9.632 17.236 7.401 26.665 8.314 1.115 14.549 8.314 14.549 16.83a17.005 17.005 0 01-17.033 17.033c-8.313-.101-15.056-5.931-16.627-13.738"/><path fill="#4A8CCA" d="M102.851 86.432L89.62 99.663l-12.572 12.572-2.484 2.484c-7.148 7.148-17.489 9.632-26.665 7.401-1.774 7.604-8.516 13.231-16.577 13.231a17.005 17.005 0 01-17.033-17.033c0-8.06 5.627-14.802 12.977-16.577-2.484-9.429 0-19.517 7.401-26.867l.912-.912 12.572 12.572-.912.912c-4.055 4.055-4.055 10.747 0 14.802s10.747 4.055 14.802 0l2.484-2.484 12.572-12.572 13.231-13.231 12.523 12.471"/><path fill="#FFF" d="M180.918 72.542l-2.484-2.484c-7.604-7.604-9.835-18.351-6.945-28.033-7.604-1.774-13.231-8.516-13.231-16.577a17.005 17.005 0 0117.033-17.033c8.516 0 15.461 6.286 16.83 14.346 9.175-2.231 19.263.456 26.462 7.401l.912.912-12.623 12.521-.912-.912c-4.055-4.055-10.747-4.055-14.802 0s-4.055 10.747 0 14.802l2.484 2.484 12.572 12.572 13.231 13.231-12.572 12.572-13.231-13.231-12.724-12.571"/><path fill="#FFF" d="M195.011 58.399l13.231-13.231 12.572-12.572 2.484-2.484c7.604-7.604 18.351-9.835 27.78-7.148 1.115-8.314 8.314-14.549 16.83-14.549a17.005 17.005 0 0117.033 17.033c0 8.516-6.489 15.664-14.802 16.83 2.687 9.632.456 20.176-7.148 27.78l-.963.912-12.572-12.572.912-.912c4.055-4.055 4.055-10.747 0-14.802s-10.544-4.055-14.802 0l-2.484 2.484-12.319 12.572-13.18 13.231-12.572-12.572"/><path fill="#FFF" d="M251.483 121.613c-9.632 2.89-20.632.659-28.236-6.945l-.912-.912 12.572-12.572.912.912c4.055 4.055 10.747 4.055 14.802 0s4.055-10.544 0-14.802l-2.484-2.484-12.572-12.572-13.231-13.231 12.572-12.572 13.231 13.231 12.572 12.572 2.484 2.484c7.148 7.148 9.632 17.236 7.401 26.665 8.314 1.115 14.549 8.314 14.549 16.83a17.005 17.005 0 01-17.033 17.033c-8.313 0-15.055-5.83-16.627-13.637"/><path fill="#FFF" d="M246.566 86.432l-13.231 13.231-12.572 12.572-2.484 2.484c-7.148 7.148-17.489 9.632-26.665 7.401-1.774 7.604-8.516 13.231-16.577 13.231a17.005 17.005 0 01-17.033-17.033c0-8.06 5.627-14.802 12.977-16.577-2.484-9.429 0-19.517 7.401-26.867l.912-.912 12.572 12.572-.912.912c-4.055 4.055-4.055 10.747 0 14.802s10.747 4.055 14.802 0l2.484-2.484 12.572-12.572 13.231-13.231 12.523 12.471"/></svg>