<svg xmlns="http://www.w3.org/2000/svg" width="283.465" height="141.732" viewBox="7.984 0.992 283.465 141.732"><linearGradient id="a" gradientUnits="userSpaceOnUse" x1="36.207" y1="-368.412" x2="159.339" y2="-368.412" gradientTransform="matrix(1.0319 0 0 -1.0319 -23.473 -320.871)"><stop offset="0" stop-color="#29b9ec"/><stop offset="1" stop-color="#3ec5ed"/></linearGradient><path fill="url(#a)" d="M13.889 26.192c16.372 17.038 31.459 19.656 91.522 19.656s33.648 13.326-3.474 46.546c11.803-20.56 52.21-38.455-13.992-37.599-63.347.905-67.059-18.323-74.056-28.603z"/><linearGradient id="b" gradientUnits="userSpaceOnUse" x1="60.145" y1="-416.056" x2="77.717" y2="-416.056" gradientTransform="matrix(1.0319 0 0 -1.0319 -23.473 -320.871)"><stop offset="0" stop-color="#29b9ec"/><stop offset="1" stop-color="#3ec5ed"/></linearGradient><path fill="url(#b)" d="M56.723 108.576c0 5.045-4.141 8.948-8.948 8.948-5.045 0-9.186-4.141-9.186-8.948 0-5.045 4.141-9.186 9.186-9.186 4.808.191 8.948 4.141 8.948 9.186z"/><linearGradient id="c" gradientUnits="userSpaceOnUse" x1="100.179" y1="-416.056" x2="117.751" y2="-416.056" gradientTransform="matrix(1.0319 0 0 -1.0319 -23.473 -320.871)"><stop offset="0" stop-color="#29b9ec"/><stop offset="1" stop-color="#3ec5ed"/></linearGradient><path fill="url(#c)" d="M98.034 108.576c0 5.045-4.141 8.948-8.948 8.948-5.045 0-9.186-4.141-9.186-8.948 0-5.045 4.141-9.186 9.186-9.186 4.998.191 8.948 4.141 8.948 9.186z"/><path d="M155.622 26.192c16.372 17.038 31.459 19.656 91.522 19.656s33.649 13.326-3.474 46.546c11.803-20.56 52.21-38.455-13.992-37.599-63.348.905-67.06-18.323-74.056-28.603zm42.834 82.384c0 5.045-4.141 8.948-8.948 8.948-5.045 0-9.186-4.141-9.186-8.948 0-5.045 4.141-9.186 9.186-9.186 4.807.191 8.948 4.141 8.948 9.186zm41.311 0c0 5.045-4.141 8.948-8.948 8.948-5.045 0-9.186-4.141-9.186-8.948 0-5.045 4.141-9.186 9.186-9.186 4.997.191 8.948 4.141 8.948 9.186z" fill="#FFF"/></svg>