<svg width="190" height="106" xmlns:xlink="http://www.w3.org/1999/xlink" xmlns="http://www.w3.org/2000/svg"><defs><linearGradient x1="0" y1=".551" x2="1" y2=".551" id="c"><stop offset="0" stop-color="#3E3E5F"/><stop offset="1" stop-color="#1F1F22" stop-opacity="0"/></linearGradient><linearGradient x1=".661" y1=".418" x2="-1.142" y2="1.1" id="d"><stop offset="0" stop-color="#FFF"/><stop offset="1" stop-color="#CFD3E6"/></linearGradient><linearGradient x1="2.981" y1="-.679" x2="-.333" y2=".873" id="e"><stop offset="0" stop-color="#FFF"/><stop offset="1" stop-color="#CFD3E6"/></linearGradient><linearGradient x1=".489" y1=".934" x2=".489" y2="-1.959" id="f"><stop offset="0" stop-color="#FFF"/><stop offset="1" stop-color="#CFD3E6"/></linearGradient><linearGradient x1="-.867" y1="0" x2="1" y2=".783" id="g"><stop offset="0" stop-color="#82A9FB"/><stop offset="1" stop-color="#90ADFF"/></linearGradient><linearGradient x1="-1.909" y1="-.041" x2="1" y2=".758" id="h"><stop offset="0" stop-color="#ACBFE9"/><stop offset="1" stop-color="#325FE1"/></linearGradient><clipPath id="b"><use xlink:href="#a"/></clipPath><path d="M10.948 35.438L92.144.824q.23-.098.467-.172.237-.075.48-.125.244-.05.492-.076.247-.026.496-.028.249-.001.496.022.248.024.492.072.244.048.482.12.238.071.468.167L178.78 35.07q.171.07.335.154.165.082.323.177.159.095.309.201.151.107.294.224.142.117.276.244.133.128.257.264.124.137.237.282.114.146.216.3.102.153.193.314.091.16.169.327.079.167.145.34.066.171.12.348.053.177.093.357t.067.362q.027.183.04.367.013.184.013.368-.001.185-.015.369-.014.183-.041.366-.028.182-.068.362-.041.18-.095.357-.054.176-.121.348t-.146.338q-.08.167-.171.327-.092.16-.195.313-.103.153-.217.298t-.238.282q-.124.136-.258.263-.134.126-.277.243-.143.116-.295.222-.151.106-.31.2-.158.094-.323.176-.165.083-.336.152L95.903 78.221q-.453.185-.933.28-.48.093-.97.092-.49 0-.969-.097-.48-.095-.932-.282l-81.102-33.56q-.169-.07-.333-.152-.164-.083-.321-.177-.157-.094-.307-.2-.15-.104-.292-.22-.142-.117-.275-.243-.133-.126-.257-.261-.123-.136-.236-.28-.114-.145-.216-.297t-.193-.311q-.09-.16-.17-.325-.079-.165-.146-.336-.066-.171-.12-.346-.054-.175-.095-.354-.04-.179-.069-.36-.027-.181-.042-.364-.014-.183-.015-.366-.001-.184.011-.367.013-.182.039-.364.025-.181.064-.36.04-.18.092-.356.052-.175.116-.347.065-.172.142-.338.078-.166.167-.326.089-.16.19-.314.1-.153.212-.298.112-.146.234-.283.122-.137.253-.264.132-.128.273-.245.14-.118.29-.225.148-.107.304-.203.157-.096.32-.18.163-.084.331-.156z" transform="translate(0 27)" id="a"/></defs><use fill="#FAFBFD" fill-opacity=".496" xlink:href="#a"/><g clip-path="url(#b)"><use xlink:href="#a" fill="none" stroke="#000" stroke-opacity=".496" stroke-width="2"/></g><path d="M31.722 0l31.722 13.628-31.722 12.975L0 13.628 31.722 0z" transform="translate(63 56.845)" fill="url(#c)" fill-opacity=".733"/><path d="M0 0l21.109 8.317v22.472l10.418 4.36.195 12.675v12.378L0 47.227V0z" transform="matrix(-1 0 0 1 126.445 12.981)" fill="url(#d)"/><path d="M0 0l21.078 8.45.06 22.478 10.778 4.06-.194 12.676v12.378L0 47.067V0z" transform="translate(63 13.142)" fill="url(#e)"/><path d="M30.034 0l33.41 13.076-21.109 8.317-10.419-4.252-10.777 4.451-10.704-4.468L0 13.077 30.034 0z" transform="translate(63)" fill="url(#f)"/><path d="M94.92 17.142l10.435 4.252-10.435 4.062-10.842-3.864 10.842-4.45zM73.638 8.443L84.24 13l-10.82 4.252L63 13l10.638-4.557zm47.548 2.544l5.242 2.155-5.202 1.952-5.648-1.766 5.608-2.34z" fill="#CBD9FF"/><path d="M10.435 4.063v22.674L0 22.377.016 0l10.419 4.063z" transform="matrix(-1 0 0 1 105.352 21.394)" fill="url(#g)"/><path d="M5.217 1.953v5.945L0 5.77.016 0l5.201 1.953z" transform="matrix(-1 0 0 1 126.445 54.438)" fill="url(#g)"/><path d="M5.217 1.953v5.945L0 5.77.016 0l5.201 1.953z" transform="matrix(-1 0 0 1 126.445 13.142)" fill="url(#g)"/><path d="M10.842 3.864v22.674L.064 22.478 0 0l10.842 3.864z" transform="translate(84.078 21.592)" fill="url(#h)"/><path d="M63 47.837l10.419 4.252v12.377L63 60.21V47.837z" fill="#F2444E" style="mix-blend-mode:multiply"/><path d="M0 0l10.419 4.252v12.377L0 12.372V0z" transform="translate(63 13)" fill="url(#h)"/></svg>