<svg xmlns="http://www.w3.org/2000/svg" id="Hosting_icons" data-name="Hosting icons" viewBox="0 0 50 50"><defs><style>.cls-2{fill:#5d43ac}.cls-3{fill:#cad4ff}</style></defs><circle cx="27.12" cy="24.14" r="16.34" fill="#f0f4f7"/><path class="cls-2" d="M26.56 50.52C21.21 50.52 17 39.31 17 25S21.21-.52 26.56-.52c4.18 0 7.72 6.73 9 17.13l-1.56.21c-1.16-9.25-4.2-15.7-7.4-15.7-3.82 0-7.9 9.59-7.9 23.88s4.08 23.88 7.9 23.88c3.2 0 6.34-6.88 7.4-16.28l1.62.19c-1.21 10.77-4.78 17.73-9.06 17.73z"/><path class="cls-2" d="M35.92 30l-1.63-.12c.11-1.59.17-3.23.17-4.87s-.06-3.28-.17-4.87l1.63-.14c.12 1.63.18 3.31.18 5s-.1 3.36-.18 5z"/><path class="cls-2" d="M10.59 40.29c-3 0-5.17-.86-6.13-2.53-2.13-3.69 2.07-10.22 10.69-16.66l1 1.31C8.58 28.05 4.27 34.16 5.88 36.94c1 1.67 4.05 2.16 8.49 1.33a53.6 53.6 0 0016.14-6.43 53.57 53.57 0 0013.64-10.77c2.93-3.42 4.06-6.34 3.09-8-1.59-2.76-9-2.12-17.54 1.54l-.65-1.5c9.8-4.18 17.5-4.52 19.61-.86 1.35 2.34.19 5.85-3.27 9.9a55.71 55.71 0 01-14.06 11.11 55.62 55.62 0 01-16.66 6.62 23.26 23.26 0 01-4.08.41z"/><path class="cls-2" d="M18.47 20.74l-.91-1.35a69.179 69.179 0 018.54-4.94l.72 1.47c-1.41.69-2.83 1.44-4.21 2.24s-2.81 1.69-4.14 2.58z"/><path class="cls-2" d="M42.51 40.3c-3.61 0-8.44-1.21-13.9-3.59l.65-1.5c8.79 3.83 16.35 4.56 18 1.73 1.91-3.3-4.36-11.64-16.73-18.78a53.6 53.6 0 00-16.14-6.43c-4.44-.83-7.53-.34-8.49 1.33-1.64 2.8 2.71 8.94 10.32 14.59l-1 1.32c-8.69-6.46-12.92-13-10.78-16.73 1.35-2.34 5-3.09 10.21-2.12a55.62 55.62 0 0116.66 6.62c12.39 7.16 20 16.39 17.33 21-.96 1.72-3.12 2.56-6.13 2.56z"/><path class="cls-2" d="M26.2 35.6c-1.46-.71-2.95-1.5-4.41-2.34s-2.88-1.73-4.23-2.65l.92-1.35c1.32.89 2.71 1.76 4.13 2.58s2.87 1.6 4.31 2.29z"/><path class="cls-3" d="M15.72 39.16a3 3 0 11-3-3 3 3 0 013 3z"/><path class="cls-2" d="M12.68 43a3.86 3.86 0 113.86-3.86A3.87 3.87 0 0112.68 43zm0-6.08a2.22 2.22 0 102.22 2.22 2.23 2.23 0 00-2.22-2.2z"/><path class="cls-3" d="M49.18 29.93a3 3 0 11-3-3 3 3 0 013 3z"/><path class="cls-2" d="M46.14 33.79A3.86 3.86 0 1150 29.93a3.86 3.86 0 01-3.86 3.86zm0-6.08a2.23 2.23 0 102.23 2.22 2.23 2.23 0 00-2.23-2.22z"/><path class="cls-3" d="M24.17 5.36a3 3 0 11-3-3 3 3 0 013 3z"/><path class="cls-2" d="M21.13 9.22A3.86 3.86 0 1125 5.36a3.86 3.86 0 01-3.87 3.86zm0-6.08a2.22 2.22 0 102.22 2.22 2.23 2.23 0 00-2.22-2.22z"/><path d="M38.57 7.8a3.26 3.26 0 113.26-3.26 3.26 3.26 0 01-3.26 3.26zm0-4.88a1.62 1.62 0 101.62 1.62 1.63 1.63 0 00-1.62-1.62zm-.83 45.74A3.27 3.27 0 1141 45.39a3.28 3.28 0 01-3.26 3.27zm0-4.91a1.64 1.64 0 101.64 1.64 1.64 1.64 0 00-1.64-1.64z" fill="#ff775c"/><path d="M3.31 28.31A3.31 3.31 0 116.61 25a3.31 3.31 0 01-3.3 3.31zm0-5a1.67 1.67 0 00-1.19 2.85 1.66 1.66 0 001.18.49A1.67 1.67 0 005 25a1.68 1.68 0 00-.49-1.18 1.66 1.66 0 00-1.2-.49z" fill="#bcc0c4"/></svg>