<svg xmlns="http://www.w3.org/2000/svg" width="283.465" height="141.732" viewBox="7.984 0.992 283.465 141.732"><path fill="#9FDAE7" d="M55.73 105.951a56.14 56.14 0 013.076-1.255 56.05 56.05 0 018.049-2.388 55.761 55.761 0 016.212-.96 193.768 193.768 0 01-3.87 10.986c.06.705.092 1.414.111 2.125 2.826-.557 5.744-.856 8.733-.856s5.907.299 8.733.856c.019-.711.051-1.42.111-2.125a194.276 194.276 0 01-3.87-10.986c2.089.202 4.163.525 6.212.96a56.05 56.05 0 018.049 2.388c1.036.39 2.063.804 3.077 1.255a55.047 55.047 0 0119.113 14.109c13.469-11.631 22.006-28.82 22.006-48.013 0-35.032-28.399-63.431-63.431-63.431s-63.432 28.4-63.432 63.432c0 19.193 8.537 36.382 22.006 48.013a55.044 55.044 0 0119.115-14.11"/><path fill="#525453" d="M59.91 117.428a44.524 44.524 0 019.397-2.969 36.545 36.545 0 00-.111-2.125 194.276 194.276 0 003.87-10.986 55.995 55.995 0 00-6.212.96 55.94 55.94 0 00-4.506 1.176c-1.195.36-2.374.773-3.543 1.212l4.624 1.12-3.519 11.612zm-10.9 6.838c.115-1.182.186-2.374.186-3.579 0-.725.588-1.313 1.313-1.313h1.153l4.068-13.423a55.044 55.044 0 00-19.115 14.11 63.476 63.476 0 009.564 6.827 45.563 45.563 0 012.831-2.622m51.342-18.314l4.068 13.422h1.151c.725 0 1.313.588 1.313 1.313 0 1.205.071 2.397.186 3.58a45.281 45.281 0 012.831 2.622 63.546 63.546 0 009.564-6.827 55.024 55.024 0 00-19.113-14.11m-7.699-.135l4.623-1.12a56.05 56.05 0 00-8.049-2.389 55.995 55.995 0 00-6.212-.96 193.768 193.768 0 003.87 10.986c-.06.705-.093 1.414-.111 2.125a44.468 44.468 0 019.399 2.97l-3.52-11.612z"/><path fill="#231F20" d="M78.041 119.374h8.938a35.899 35.899 0 01-.206-4.915 45.102 45.102 0 00-8.732-.856c-2.989 0-5.907.299-8.733.856a35.899 35.899 0 01-.206 4.915h8.939zm-31.862 7.514c.737.429 1.481.848 2.236 1.248.265-1.271.467-2.562.595-3.87a45.563 45.563 0 00-2.831 2.622"/><path fill="#231F20" d="M59.32 119.374h9.781c.183-1.647.249-3.288.206-4.915a44.506 44.506 0 00-9.397 2.969l-.59 1.946zm47.75 4.892a36.3 36.3 0 00.595 3.87c.755-.4 1.499-.818 2.236-1.248a45.003 45.003 0 00-2.831-2.622m-10.309-4.892l-.59-1.946a44.565 44.565 0 00-9.399-2.97 35.899 35.899 0 00.206 4.915h9.783z"/><path fill="#A99578" d="M59.32 119.374l.59-1.946 3.519-11.611-4.624-1.12c-1.036.39-2.063.804-3.075 1.255l-4.068 13.422h7.658zm36.852-1.946l.59 1.946h7.658l-4.068-13.422a55.674 55.674 0 00-3.076-1.255l-4.623 1.12 3.519 11.611z"/><path fill="#BFB098" d="M51.796 122.085l.12-.086h-.115l-.005.086"/><path fill="#BFB098" d="M78.04 121.999H51.916l-.12.086a38.816 38.816 0 01-.958 7.273 63.167 63.167 0 0027.203 6.121v-13.48z"/><path fill="#A99578" d="M104.28 121.999h-.115l.12.086-.005-.086"/><path fill="#A99578" d="M104.165 121.999H78.04v13.479c9.737 0 18.958-2.2 27.203-6.121a38.91 38.91 0 01-.958-7.273l-.12-.085"/><path fill="#8A7461" d="M107.07 124.266a36.917 36.917 0 01-.186-3.579c0-.725-.588-1.313-1.313-1.313H50.51c-.725 0-1.313.588-1.313 1.313 0 1.205-.071 2.397-.186 3.579a36.3 36.3 0 01-.595 3.87c.798.423 1.604.833 2.422 1.222a38.9 38.9 0 00.958-7.273l.005-.086h52.479l.005.086a38.9 38.9 0 00.958 7.273c.818-.389 1.623-.8 2.422-1.222a36.3 36.3 0 01-.595-3.87"/><path fill="#A99578" d="M97.661 111.771l.013.041-.013-.041s-.643-.509-1.459-1.449c.816.94 1.459 1.449 1.459 1.449"/><path fill="#FFF" d="M117.043 54.38v.003h.001zm2.553 18.263l.001-.019-.001.019"/><path fill="#BABBBD" d="M120.274 57.932l-.032-.041a21.51 21.51 0 00-1.628-2.006l-.005-.006.005.006-.015-.017c-.253-.275-.51-.537-.769-.786-.098-.094-.198-.176-.297-.265-.163-.148-.325-.301-.49-.437v5.902l2.259 10.346c.024.08.054.155.075.239l1.565 1.754.016-.017h1.638c.002-.152.012-.302.012-.454v-.003c0-4.88-.802-9.569-2.255-13.961-.026-.085-.05-.17-.079-.254m-.677 14.692l-.001-.017.001.017"/><path fill="#676A6A" d="M119.525 71.636c.002.017.007.032.009.049l.005.03v.004c.03.243.042.495.047.751.001.047.008.091.008.138l.001.017-.001.019c0 .051-.008.098-.009.148a7.65 7.65 0 01-.046.736v.004l-.007.035c-.002.02-.008.037-.011.056a6.64 6.64 0 01-.142.75v.003l.008-.009.004-.012 1.552-1.735-1.565-1.754.001.004c.063.244.11.501.146.766"/><path fill="#231F20" d="M119.523 73.622c.005-.033.014-.063.017-.095.029-.238.04-.486.046-.737.001-.056.01-.109.01-.166 0-.053-.008-.102-.009-.155a7.292 7.292 0 00-.047-.75c-.003-.029-.011-.055-.015-.083a6.701 6.701 0 00-.146-.766c-.022-.085-.052-.161-.077-.243a4.914 4.914 0 00-.597-1.299c-.033-.048-.066-.096-.1-.142a3.356 3.356 0 00-.205-.255 2.52 2.52 0 00-.328-.305c-.044-.033-.09-.056-.134-.085a1.981 1.981 0 00-.304-.162c-.045-.018-.09-.036-.135-.05-.148-.046-.299-.079-.454-.079s-.306.032-.454.079a2.038 2.038 0 00-.44.212c-.044.029-.091.052-.134.085a2.59 2.59 0 00-.532.559c-.035.046-.068.094-.101.142a4.872 4.872 0 00-.616 1.359 6.769 6.769 0 00-.161.714c-.013.075-.03.147-.041.225a6.99 6.99 0 00-.064.857c-.001.041-.007.079-.007.12h.01c0 2.416 1.143 4.375 2.553 4.375.243 0 .477-.063.699-.172.035-.018.071-.036.106-.056.092-.053.183-.111.27-.181.048-.039.093-.086.139-.129a3.69 3.69 0 00.525-.645c.041-.066.079-.137.117-.208a4.84 4.84 0 00.2-.415c.023-.052.046-.103.067-.158a5.72 5.72 0 00.342-1.391m-2.388-1.58c-.529 0-.957-.735-.957-1.64 0-.906.429-1.641.957-1.641.529 0 .957.735.957 1.641 0 .905-.428 1.64-.957 1.64"/><path fill="#FFF" d="M117.135 68.761c-.529 0-.957.735-.957 1.64 0 .906.429 1.641.957 1.641.529 0 .957-.735.957-1.641s-.428-1.64-.957-1.64"/><path fill="#8F9293" d="M114.785 70.627c.15-.497.355-.935.597-1.3a3.964 3.964 0 01.305-.396 2.52 2.52 0 01.328-.305c.043-.033.089-.056.134-.085.099-.064.2-.119.305-.162.045-.018.089-.036.135-.051.148-.046.298-.079.454-.079a1.488 1.488 0 01.589.13c.104.043.205.097.304.162.045.029.091.052.134.085.115.088.223.19.328.305a3.566 3.566 0 01.305.396c.243.365.448.803.598 1.3h.001l-2.259-10.345-2.258 10.345z"/><path fill="#231F20" d="M87.109 72.527a5.955 5.955 0 00-.04-.616l-.001-.008a5.981 5.981 0 00-.1-.589l-.004-.015a6.19 6.19 0 00-.155-.561l-.005-.013a5.947 5.947 0 00-.209-.539l-.005-.011a6.038 6.038 0 00-1.335-1.886 5.988 5.988 0 00-1.857-1.206l-.017-.007a5.908 5.908 0 00-2.244-.439c-.386 0-.762.04-1.126.11-.012.003-.026.004-.039.006a5.89 5.89 0 00-1.05.313l-.027.01a5.938 5.938 0 00-.973.505l-.003.001a6.032 6.032 0 00-.865.675l-.007.02-.022.006a6.029 6.029 0 00-1.341 1.889l-.025.053a5.863 5.863 0 00-.181.474c-.01.032-.024.062-.034.093a5.94 5.94 0 00-.123.458c-.01.044-.024.087-.034.131a6.522 6.522 0 00-.074.465c-.006.048-.016.095-.022.142a5.945 5.945 0 00.081 1.778l.004.024c.075.373.186.734.327 1.078l.005.014a6.005 6.005 0 002.605 2.94l.008.005c.161.09.327.171.496.247l.041.02c.157.068.318.127.482.182.028.009.055.021.083.03.151.048.306.087.462.123.042.009.083.023.125.032a5.8 5.8 0 00.463.073c.047.006.094.017.141.022a5.947 5.947 0 003.962-.989 6.02 6.02 0 002.166-2.629c.302-.715.47-1.501.47-2.326l-.002-.041c.001-.014-.001-.029-.001-.044m-5.972-.7a2.245 2.245 0 110-4.49 2.245 2.245 0 010 4.49"/><path fill="#FFF" d="M81.137 67.337a2.245 2.245 0 100 4.49 2.245 2.245 0 000-4.49"/><path fill="#BABBBD" d="M77.026 68.284l.022-.005.007-.02L81.17 55.67v-2.981a35.094 35.094 0 00-7.062-.728c-.806 0-1.604.034-2.398.088l-.348.024c-4.131.314-8.2 1.39-11.967 3.11a38.23 38.23 0 00-8.93 5.722l-.005.004a40.283 40.283 0 00-2.097 1.931c-.126.125-.255.247-.38.373a41.52 41.52 0 00-1.852 1.992c-.13.149-.257.301-.385.452a43.646 43.646 0 00-1.735 2.172c-.046.063-.089.128-.135.19a44.292 44.292 0 00-1.514 2.204c-.095.146-.192.291-.285.438a46.729 46.729 0 00-1.117 1.899h18.75l17.316-4.276z"/><path fill="#E2DDDB" d="M92.855 66.867a60.649 60.649 0 00.165-3.47c.01-.517.008-1.034.006-1.551 0-.149.003-.298.002-.448a79.947 79.947 0 00-.147-4.001l-.011-.007-.005-.01a1.986 1.986 0 00-.101-.058 389.598 389.598 0 00-1.422-.812l-.388-.22-.007-.004a30.687 30.687 0 00-.269-.15l-.053-.03a10.178 10.178 0 00-.196-.107 37.195 37.195 0 00-2.636-1.239c-2.133-.901-5.004-1.69-6.623-2.071v2.979l4.08 12.608.005.011a6.01 6.01 0 011.074 1.371c.095.167.182.339.261.515l.005.011c.078.175.148.355.209.539l.005.012c.06.184.112.371.155.562l.004.015c.043.193.076.389.1.588l.001.008c.024.202.037.408.04.616l.015.034h4.996c.338-1.828.573-3.681.722-5.541.003-.048.009-.099.013-.15"/><path fill="#FAAF40" d="M99.388 62.409zM87.152 90.527a219.672 219.672 0 003.224-3.266c.607-.629 1.2-1.252 1.765-1.866 4.175-4.532 7.24-8.773 9.084-14.228a5.1 5.1 0 00.13-.492l.02-.089c.043-.204.086-.43.127-.685l.05-.512c-.463-2.376-1.363-4.684-2.156-6.964a.225.225 0 01.008.024l-.023-.022c-.152-.144-.312-.279-.466-.421-.47-.433-.948-.855-1.434-1.265a38.379 38.379 0 00-4.599-3.343 78.77 78.77 0 01.147 4.001c.002.15-.002.299-.001.448.002.517.004 1.034-.007 1.551a57.908 57.908 0 01-.165 3.47l-.014.153a54.371 54.371 0 01-.722 5.541l-.587 2.775c-1.226 4.968-3.715 9.475-5.762 14.128a55.54 55.54 0 00-1.509 3.753l-.128.359a85.044 85.044 0 011.635-1.678l1.383-1.372"/><path fill="#8F9293" d="M77.054 68.258c.267-.25.557-.477.865-.675l.003-.001c.306-.197.632-.366.972-.505l.027-.01a5.976 5.976 0 011.05-.314l.039-.006a5.97 5.97 0 011.126-.11c.393 0 .775.04 1.146.113l.028.004c.37.075.727.183 1.069.323l.017.006a6.006 6.006 0 011.857 1.206l-.004-.011L81.17 55.67l-4.116 12.588z"/><path fill="#676A6A" d="M75.605 74.87a5.9 5.9 0 01-.327-1.078l-.004-.024a5.937 5.937 0 01-.081-1.779c.005-.048.016-.095.022-.142a5.85 5.85 0 01.074-.465c.009-.045.024-.087.034-.131a5.82 5.82 0 01.123-.458c.01-.032.023-.062.034-.093.055-.161.113-.32.181-.474.008-.018.018-.035.025-.052.075-.166.156-.33.245-.488l.011-.018c.293-.513.659-.98 1.085-1.384L59.71 72.561h-.033l17.15 4.186a5.992 5.992 0 01-1.217-1.864l-.005-.013"/><path fill="#E2DDDB" d="M114.564 71.625c.011-.077.028-.149.04-.225.044-.246.095-.487.162-.715.007-.025.01-.055.018-.08l2.259-10.345v-5.898c-1.846-1.525-3.823-2.358-5.881-2.358-2.6 0-5.025 1.435-6.838 3.209-1.984 1.941-3.517 4.384-4.757 6.848-.057.113-.115.222-.172.336.383.331.761.667 1.133 1.008a88.236 88.236 0 012.485 2.37c.38.375.752.758 1.126 1.138.397.403.794.806 1.184 1.216a125.328 125.328 0 012.113 2.279c.594.657 1.185 1.318 1.766 1.987l.001.001c.097.103.166.175.192.206h5.095c0-.042.008-.079.009-.12a7.19 7.19 0 01.065-.857m-15.17-9.2a.098.098 0 01-.005-.016l-.009.017a.51.51 0 00.023.022c-.003-.008-.007-.015-.009-.023"/><path fill="#525453" d="M37.888 79.071c.015-.038.031-.075.045-.114.328-.858.687-1.704 1.065-2.543.105-.233.214-.465.323-.697.309-.658.636-1.307.975-1.95.138-.262.272-.525.415-.784.079-.143.168-.28.249-.423.361-.64.726-1.277 1.117-1.899.093-.147.19-.292.284-.438a44.98 44.98 0 011.514-2.204c.046-.063.089-.128.135-.19a44.231 44.231 0 011.735-2.172c.128-.151.254-.303.384-.452a41.52 41.52 0 011.852-1.992c.126-.126.254-.249.381-.373a40.728 40.728 0 012.097-1.931l.005-.004c2.849-9.546 11.568-16.496 21.886-16.496 4.153 0 8.283 1.197 11.823 3.362 3.63 2.22 6.589 5.474 8.511 9.266l.028.057c.048.096.103.189.151.285l.005.01.011.007a38.32 38.32 0 014.599 3.342c.486.411.964.833 1.434 1.266.154.142.314.277.466.421l.008-.018.006-.011c.052-.108.104-.217.157-.323 1.454-9.177 5.502-15.787 10.276-15.787 3.598 0 6.786 3.753 8.762 9.529l.02.062.005.007a21.516 21.516 0 011.629 2.006h-.001l.032.041h.001c.028.084.052.17.08.254l-.075-.301c-5.939-17.583-22.57-30.243-42.158-30.243-24.57 0-44.487 19.917-44.487 44.487 0 4.844.774 9.506 2.211 13.846l.006-.025c.283-1.309.621-2.61 1.015-3.897a49.65 49.65 0 011.023-2.981"/><path fill="#FFF" d="M120.944 72.62l-1.552 1.736-.004.012a5.7 5.7 0 01-.211.647c-.021.054-.044.105-.067.158a4.56 4.56 0 01-.2.415 3.748 3.748 0 01-.117.208 3.51 3.51 0 01-.525.645c-.046.043-.091.091-.139.129a2.086 2.086 0 01-.376.237 1.578 1.578 0 01-.698.172c-1.41 0-2.553-1.959-2.553-4.375h-5.122l.003.004a165.491 165.491 0 012.808 3.335l.034.041c.896 1.094 1.78 2.198 2.653 3.31l.129.163c.829 1.056 1.647 2.12 2.46 3.186l.237.31a442.91 442.91 0 012.554 3.397l.018.024a44.413 44.413 0 002.333-13.769h-1.649l-.016.015z"/><path fill="#231F20" d="M71.363 52.074l.347-.024a35.29 35.29 0 012.398-.088c2.412 0 4.769.258 7.062.728v1.134-1.134c1.618.381 4.49 1.17 6.623 2.071.895.378 1.774.792 2.636 1.239l.196.107.053.03.269.15.007.004.388.22.035.02 1.387.792.059.034a.883.883 0 00.042.024c-.048-.097-.103-.189-.151-.285l-.029-.057c-1.922-3.792-4.88-7.046-8.511-9.266-3.539-2.165-7.669-3.362-11.822-3.362-10.318 0-19.037 6.95-21.887 16.497a38.25 38.25 0 018.93-5.722c3.768-1.721 7.836-2.798 11.968-3.112"/><path fill="none" d="M81.17 53.824v.265"/><path fill="#231F20" d="M104.324 55.214c1.813-1.774 4.238-3.209 6.838-3.209 2.058 0 4.036.833 5.881 2.358v.021-.004c.165.136.327.289.49.437.099.09.199.172.297.265.259.249.515.511.769.786l.015.017-.005-.006-.02-.062c-1.975-5.776-5.163-9.529-8.762-9.529-4.775 0-8.822 6.611-10.276 15.787l.015-.013c1.24-2.465 2.773-4.907 4.758-6.848"/><path fill="#FFF" d="M62.193 113.627c.406.156.819.297 1.231.441a44.365 44.365 0 0014.698 2.5 44.35 44.35 0 0016.615-3.219c.272-.109.537-.229.806-.344.436-.186.869-.376 1.298-.576.383-.178.767-.355 1.145-.543-.091.012-.182.029-.273.039-1.596.18-3.181.19-4.728-.032-9.154-1.316-11.181-5.729-10.891-10.326-.659-.38-1.33-.808-2.011-1.303-7.04-5.107-11.218-10.548-11.218-10.548s5.43 4.191 13.542 7.329c.174.067.337.126.508.19.379-1.31.828-2.556 1.222-3.661l.128-.359a54.995 54.995 0 011.509-3.752c2.046-4.653 4.535-9.16 5.761-14.128l.587-2.775h-5.006v.01l-.002.001.002.041a5.947 5.947 0 01-1.021 3.341 6.023 6.023 0 01-2.63 2.166 5.947 5.947 0 01-2.947.438c-.048-.005-.094-.016-.142-.021a5.8 5.8 0 01-.463-.073c-.042-.009-.083-.022-.125-.032a5.8 5.8 0 01-.462-.123c-.028-.009-.055-.02-.082-.03a6.198 6.198 0 01-.482-.182l-.042-.02a5.852 5.852 0 01-.495-.247l-.008-.004a6.039 6.039 0 01-1.388-1.077l-17.15-4.186H40.96c-.08.142-.17.279-.249.423-.143.259-.277.522-.415.784a46.016 46.016 0 00-1.298 2.647 48.238 48.238 0 00-1.065 2.543c-.014.038-.031.075-.045.114a47.848 47.848 0 00-2.037 6.879c2.947 8.987 8.68 16.71 16.174 22.153.217.158.448.299.669.454a44.71 44.71 0 003.936 2.468 44.812 44.812 0 005.563 2.6"/><path fill="#9E2155" d="M92.908 99.809c-.068.477-.114.945-.128 1.398a12.265 12.265 0 00.466 3.762c.194.679.436 1.314.708 1.901a14.207 14.207 0 001.189 2.087 14.842 14.842 0 001.059 1.366c.816.939 1.459 1.449 1.459 1.449l.014.042.037.112c.091-.01.182-.028.273-.039 1.984-.249 3.982-.786 5.954-1.495a39.327 39.327 0 002.992-1.203c.3-.138.595-.29.893-.434 10.19-4.927 18.723-13.643 18.723-13.643-12.804 6.291-25.318 6.04-33.639 4.697"/><path fill="#E2066F" d="M117.466 82.641a284.91 284.91 0 00-2.46-3.186l-.129-.163a209.95 209.95 0 00-2.654-3.31l-.033-.041a162.754 162.754 0 00-2.989-3.545 145.469 145.469 0 00-2.386-2.668 97.187 97.187 0 00-2.677-2.814c-.374-.381-.746-.764-1.126-1.138a94.254 94.254 0 00-2.486-2.37 54.356 54.356 0 00-1.134-1.008l-.006.012c.804 2.31 1.722 4.65 2.181 7.059.119.627.218 1.237.299 1.832 1.119 8.339-1.552 13.783-5.796 20.946-.304.513-.616 1.035-.936 1.568-.971 1.618-1.592 3.15-1.952 4.588-.12.48-.211.949-.276 1.407 8.322 1.343 20.836 1.594 33.639-4.698 0 0-2.511-3.69-6.289-8.763a443.068 443.068 0 00-2.555-3.397c-.076-.105-.156-.207-.235-.311"/><path fill="#231F20" d="M97.661 111.771s-.643-.509-1.459-1.449a14.842 14.842 0 01-1.369-1.838 14.207 14.207 0 01-.879-1.615 13.009 13.009 0 01-.708-1.901 12.184 12.184 0 01-.338-5.16c.065-.458.156-.928.276-1.407.36-1.438.982-2.97 1.952-4.589a478.3 478.3 0 00.936-1.568c4.244-7.162 6.915-12.607 5.796-20.946a33.461 33.461 0 00-.299-1.832c-.063.433-.128.806-.195 1.118l-.02.089a5.18 5.18 0 01-.13.492c-1.844 5.455-4.909 9.696-9.084 14.228-.565.614-1.158 1.237-1.765 1.866a219.672 219.672 0 01-3.224 3.266l-1.382 1.37c-.43.426-.996 1.007-1.635 1.678-.395 1.105-.843 2.35-1.222 3.661-.171-.065-.334-.123-.508-.19-8.112-3.137-13.542-7.329-13.542-7.329s4.178 5.441 11.218 10.548c.682.494 1.353.922 2.012 1.302-.291 4.597 1.738 9.01 10.891 10.326 1.548.223 3.132.212 4.728.032l-.037-.113-.013-.039"/><path fill="#FFF" d="M197.462 105.951a56.14 56.14 0 013.076-1.255 56.05 56.05 0 018.049-2.388 55.761 55.761 0 016.212-.96 193.768 193.768 0 01-3.87 10.986c.06.705.092 1.414.111 2.125a45.112 45.112 0 018.733-.856c2.989 0 5.907.299 8.733.856.019-.711.051-1.42.111-2.125a194.276 194.276 0 01-3.87-10.986c2.089.202 4.163.525 6.212.96a56.05 56.05 0 018.049 2.388c1.036.39 2.063.804 3.077 1.255a55.047 55.047 0 0119.113 14.109c13.469-11.631 22.006-28.82 22.006-48.013 0-35.032-28.399-63.431-63.431-63.431s-63.431 28.399-63.431 63.431c0 19.193 8.537 36.382 22.006 48.013a55.06 55.06 0 0119.114-14.109"/><path fill="#525453" d="M201.643 117.428a44.524 44.524 0 019.397-2.969 36.545 36.545 0 00-.111-2.125 194.276 194.276 0 003.87-10.986 55.995 55.995 0 00-6.212.96 55.94 55.94 0 00-4.506 1.176c-1.195.36-2.374.773-3.543 1.212l4.624 1.12-3.519 11.612zm-10.9 6.838c.115-1.182.186-2.374.186-3.579 0-.725.588-1.313 1.313-1.313h1.153l4.068-13.423a55.044 55.044 0 00-19.115 14.11 63.476 63.476 0 009.564 6.827 45.003 45.003 0 012.831-2.622m51.341-18.314l4.068 13.422h1.151c.725 0 1.313.588 1.313 1.313 0 1.205.071 2.397.186 3.58a45.281 45.281 0 012.831 2.622 63.546 63.546 0 009.564-6.827 55.024 55.024 0 00-19.113-14.11m-7.699-.135l4.623-1.12a56.05 56.05 0 00-8.049-2.389 55.995 55.995 0 00-6.212-.96 193.768 193.768 0 003.87 10.986c-.06.705-.093 1.414-.111 2.125a44.468 44.468 0 019.399 2.97l-3.52-11.612z"/><path fill="#231F20" d="M219.773 119.374h8.938a35.899 35.899 0 01-.206-4.915 45.102 45.102 0 00-8.732-.856c-2.989 0-5.907.299-8.733.856a35.899 35.899 0 01-.206 4.915h8.939zm-31.861 7.514c.737.429 1.481.848 2.236 1.248.265-1.271.467-2.562.595-3.87a45.003 45.003 0 00-2.831 2.622"/><path fill="#231F20" d="M201.053 119.374h9.781c.183-1.647.249-3.288.206-4.915a44.506 44.506 0 00-9.397 2.969l-.59 1.946zm47.75 4.892a36.3 36.3 0 00.595 3.87c.755-.4 1.499-.818 2.236-1.248a45.281 45.281 0 00-2.831-2.622m-10.309-4.892l-.59-1.946a44.565 44.565 0 00-9.399-2.97 35.899 35.899 0 00.206 4.915h9.783z"/><path fill="#A99578" d="M201.053 119.374l.59-1.946 3.519-11.611-4.624-1.12c-1.036.39-2.063.804-3.075 1.255l-4.068 13.422h7.658zm36.851-1.946l.59 1.946h7.658l-4.068-13.422a55.674 55.674 0 00-3.076-1.255l-4.623 1.12 3.519 11.611z"/><path fill="#BFB098" d="M193.528 122.085l.12-.086h-.115l-.005.086"/><path fill="#BFB098" d="M219.773 121.999h-26.125l-.12.086a38.816 38.816 0 01-.958 7.273 63.167 63.167 0 0027.203 6.121v-13.48z"/><path fill="#A99578" d="M246.012 121.999h-.115l.12.086-.005-.086"/><path fill="#A99578" d="M245.897 121.999h-26.125v13.479c9.737 0 18.958-2.2 27.203-6.121a38.91 38.91 0 01-.958-7.273l-.12-.085"/><path fill="#8A7461" d="M248.803 124.266a36.917 36.917 0 01-.186-3.579c0-.725-.588-1.313-1.313-1.313h-55.061c-.725 0-1.313.588-1.313 1.313 0 1.205-.071 2.397-.186 3.579a36.3 36.3 0 01-.595 3.87c.798.423 1.604.833 2.422 1.222a38.9 38.9 0 00.958-7.273l.005-.086h52.479l.005.086a38.9 38.9 0 00.958 7.273c.818-.389 1.623-.8 2.422-1.222a36.048 36.048 0 01-.595-3.87"/><path fill="#A99578" d="M239.394 111.771l.013.041-.013-.041s-.643-.509-1.459-1.449c.815.94 1.459 1.449 1.459 1.449"/><path fill="#FFF" d="M258.776 54.38v.003zm2.552 18.263l.001-.019-.001.019"/><path fill="#BABBBD" d="M262.007 57.932l-.032-.041a21.51 21.51 0 00-1.628-2.006l-.005-.006.005.006-.015-.017a17.386 17.386 0 00-.769-.786c-.098-.094-.198-.176-.297-.265-.163-.148-.325-.301-.49-.437v5.902l2.259 10.346c.024.08.054.155.075.239l1.565 1.754.016-.017h1.638c.002-.152.012-.302.012-.454v-.003c0-4.88-.802-9.569-2.255-13.961-.027-.085-.051-.17-.079-.254m-.678 14.692l-.001-.017.001.017"/><path fill="#676A6A" d="M261.258 71.636c.002.017.007.032.009.049l.005.03v.004c.03.243.042.495.047.751.001.047.008.091.008.138l.001.017-.001.019c0 .051-.008.098-.009.148a7.65 7.65 0 01-.046.736v.004l-.007.035c-.002.02-.008.037-.011.056a6.64 6.64 0 01-.142.75v.003l.008-.009.004-.012 1.552-1.735-1.565-1.754.001.004c.062.244.11.501.146.766"/><path fill="#231F20" d="M261.255 73.622c.005-.033.014-.063.017-.095.029-.238.04-.486.046-.737.001-.056.01-.109.01-.166 0-.053-.008-.102-.009-.155a7.292 7.292 0 00-.047-.75c-.003-.029-.011-.055-.015-.083a6.701 6.701 0 00-.146-.766c-.022-.085-.052-.161-.077-.243a4.914 4.914 0 00-.597-1.299c-.033-.048-.066-.096-.1-.142a3.356 3.356 0 00-.205-.255 2.52 2.52 0 00-.328-.305c-.044-.033-.09-.056-.134-.085a1.981 1.981 0 00-.304-.162c-.045-.018-.09-.036-.135-.05a1.53 1.53 0 00-.454-.079c-.156 0-.306.032-.454.079a1.99 1.99 0 00-.44.212c-.044.029-.091.052-.134.085a2.59 2.59 0 00-.532.559c-.035.046-.068.094-.101.142a4.872 4.872 0 00-.616 1.359 6.769 6.769 0 00-.161.714c-.013.075-.03.147-.041.225a6.99 6.99 0 00-.064.857c-.001.041-.007.079-.007.12h.01c0 2.416 1.143 4.375 2.553 4.375.243 0 .477-.063.699-.172a2.143 2.143 0 00.376-.237c.048-.039.093-.086.139-.129a3.69 3.69 0 00.525-.645c.041-.066.079-.137.117-.208a4.84 4.84 0 00.2-.415c.023-.052.046-.103.067-.158a5.72 5.72 0 00.342-1.391m-2.388-1.58c-.529 0-.957-.735-.957-1.64 0-.906.429-1.641.957-1.641.529 0 .957.735.957 1.641.001.905-.428 1.64-.957 1.64"/><path fill="#FFF" d="M258.867 68.761c-.529 0-.957.735-.957 1.64 0 .906.429 1.641.957 1.641.529 0 .957-.735.957-1.641.001-.906-.428-1.64-.957-1.64"/><path fill="#8F9293" d="M256.517 70.627c.15-.497.355-.935.597-1.3a3.964 3.964 0 01.305-.396 2.52 2.52 0 01.328-.305c.043-.033.089-.056.134-.085.099-.064.2-.119.305-.162.045-.018.089-.036.135-.051.148-.046.298-.079.454-.079a1.488 1.488 0 01.589.13c.104.043.206.097.304.162.045.029.091.052.134.085.115.088.223.19.328.305a3.566 3.566 0 01.305.396c.243.365.448.803.598 1.3h.001l-2.259-10.345-2.258 10.345z"/><path fill="#231F20" d="M228.841 72.527a5.955 5.955 0 00-.04-.616l-.001-.008a5.981 5.981 0 00-.1-.589l-.004-.015a6.19 6.19 0 00-.155-.561l-.005-.013a5.947 5.947 0 00-.209-.539l-.005-.011a6.038 6.038 0 00-1.335-1.886 5.988 5.988 0 00-1.857-1.206l-.017-.007a5.908 5.908 0 00-2.244-.439c-.386 0-.762.04-1.126.11-.012.003-.026.004-.039.006a5.89 5.89 0 00-1.05.313l-.027.01a5.938 5.938 0 00-.973.505l-.003.001a6.032 6.032 0 00-.865.675l-.007.02-.022.006a6.029 6.029 0 00-1.341 1.889l-.025.053a5.863 5.863 0 00-.181.474c-.01.032-.024.062-.034.093a5.94 5.94 0 00-.123.458c-.01.044-.024.087-.034.131a6.522 6.522 0 00-.074.465c-.006.048-.016.095-.022.142a5.945 5.945 0 00.081 1.778l.004.024c.075.373.186.734.327 1.078l.005.014a6.005 6.005 0 002.605 2.94l.008.005c.161.09.327.171.496.247l.041.02c.157.068.318.127.482.182.028.009.055.021.083.03.151.048.306.087.462.123.042.009.083.023.125.032a5.8 5.8 0 00.463.073c.047.006.094.017.141.022a5.947 5.947 0 003.962-.989 6.02 6.02 0 002.166-2.629c.302-.715.47-1.501.47-2.326l-.002-.041a.327.327 0 00-.001-.044m-5.972-.7a2.245 2.245 0 110-4.49 2.245 2.245 0 010 4.49"/><path fill="#FFF" d="M222.869 67.337a2.245 2.245 0 100 4.49 2.245 2.245 0 000-4.49"/><path fill="#BABBBD" d="M218.758 68.284l.022-.005.007-.02 4.116-12.588V52.69a35.094 35.094 0 00-7.062-.728c-.806 0-1.604.034-2.398.088l-.348.024c-4.131.314-8.2 1.39-11.967 3.11a38.23 38.23 0 00-8.93 5.722l-.005.004a40.283 40.283 0 00-2.097 1.931c-.126.125-.255.247-.38.373a41.52 41.52 0 00-1.852 1.992c-.13.149-.257.301-.385.452a43.646 43.646 0 00-1.735 2.172c-.046.063-.089.128-.135.19a44.292 44.292 0 00-1.514 2.204c-.095.146-.192.291-.285.438a46.729 46.729 0 00-1.117 1.899h18.75l17.315-4.277z"/><path fill="#E2DDDB" d="M234.587 66.867a60.649 60.649 0 00.165-3.47c.01-.517.008-1.034.006-1.551 0-.149.003-.298.002-.448a79.947 79.947 0 00-.147-4.001l-.011-.007-.005-.01a1.986 1.986 0 00-.101-.058 389.598 389.598 0 00-1.422-.812l-.388-.22-.007-.004a30.687 30.687 0 00-.269-.15l-.053-.03a10.178 10.178 0 00-.196-.107 37.195 37.195 0 00-2.636-1.239c-2.133-.901-5.004-1.69-6.623-2.071v2.979l4.08 12.608.005.011a6.01 6.01 0 011.074 1.371c.095.167.182.339.261.515l.005.011c.078.175.148.355.209.539l.005.012c.06.184.112.371.155.562l.004.015c.043.193.076.389.1.588l.001.008c.024.202.037.408.04.616l.015.034h4.996c.338-1.828.573-3.681.722-5.541.003-.048.009-.099.013-.15"/><path fill="#FAAF40" d="M241.12 62.409zm-12.236 28.118a219.672 219.672 0 003.224-3.266c.607-.629 1.2-1.252 1.765-1.866 4.175-4.532 7.24-8.773 9.084-14.228a5.1 5.1 0 00.13-.492l.02-.089c.043-.204.086-.43.127-.685l.05-.512c-.463-2.376-1.363-4.684-2.156-6.964a.225.225 0 01.008.024l-.023-.022c-.152-.144-.312-.279-.466-.421-.47-.433-.948-.855-1.434-1.265a38.379 38.379 0 00-4.599-3.343 78.77 78.77 0 01.147 4.001c.002.15-.002.299-.001.448.002.517.004 1.034-.007 1.551a60.54 60.54 0 01-.165 3.47l-.014.153a54.371 54.371 0 01-.722 5.541l-.587 2.775c-1.226 4.968-3.715 9.475-5.762 14.128a55.54 55.54 0 00-1.509 3.753l-.128.359a85.044 85.044 0 011.635-1.678l1.383-1.372"/><path fill="#8F9293" d="M218.787 68.258c.267-.25.557-.477.865-.675l.003-.001c.306-.197.632-.366.972-.505l.027-.01a5.976 5.976 0 011.05-.314l.039-.006a5.97 5.97 0 011.126-.11c.393 0 .775.04 1.146.113l.028.004c.37.075.727.183 1.069.323l.017.006a6.006 6.006 0 011.857 1.206l-.004-.011-4.08-12.608-4.115 12.588z"/><path fill="#676A6A" d="M217.337 74.87a5.9 5.9 0 01-.327-1.078l-.004-.024a5.937 5.937 0 01-.081-1.779c.005-.048.016-.095.022-.142a5.85 5.85 0 01.074-.465c.009-.045.024-.087.034-.131a5.82 5.82 0 01.123-.458c.01-.032.023-.062.034-.093.055-.161.113-.32.181-.474.008-.018.018-.035.025-.052.075-.166.156-.33.245-.488l.011-.018c.293-.513.659-.98 1.085-1.384l-17.315 4.277h-.033l17.15 4.186a5.992 5.992 0 01-1.217-1.864c-.004-.004-.005-.009-.007-.013"/><path fill="#E2DDDB" d="M256.297 71.625c.011-.077.028-.149.04-.225.044-.246.095-.487.162-.715.007-.025.01-.055.018-.08l2.259-10.345v-5.898c-1.846-1.525-3.823-2.358-5.881-2.358-2.6 0-5.025 1.435-6.838 3.209-1.984 1.941-3.517 4.384-4.757 6.848-.057.113-.115.222-.172.336.383.331.761.667 1.133 1.008a88.236 88.236 0 012.485 2.37c.38.375.752.758 1.126 1.138.397.403.794.806 1.184 1.216a125.328 125.328 0 012.113 2.279c.594.657 1.185 1.318 1.766 1.987l.001.001c.097.103.166.175.192.206h5.095c0-.042.008-.079.009-.12.005-.294.025-.581.065-.857m-15.171-9.2a.098.098 0 01-.005-.016l-.009.017a.51.51 0 00.023.022l-.009-.023"/><path fill="#525453" d="M179.62 79.071c.015-.038.031-.075.045-.114.328-.858.687-1.704 1.065-2.543.105-.233.214-.465.323-.697.309-.658.636-1.307.975-1.95.138-.262.272-.525.415-.784.079-.143.168-.28.249-.423.361-.64.726-1.277 1.117-1.899.093-.147.19-.292.284-.438a44.98 44.98 0 011.514-2.204c.046-.063.089-.128.135-.19a44.231 44.231 0 011.735-2.172c.128-.151.254-.303.384-.452a41.52 41.52 0 011.852-1.992c.126-.126.254-.249.381-.373a40.728 40.728 0 012.097-1.931l.005-.004c2.849-9.546 11.568-16.496 21.886-16.496 4.153 0 8.283 1.197 11.823 3.362 3.63 2.22 6.589 5.474 8.511 9.266l.028.057c.048.096.103.189.151.285l.005.01.011.007a38.32 38.32 0 014.599 3.342c.486.411.964.833 1.434 1.266.154.142.314.277.466.421l.008-.018.006-.011c.052-.108.104-.217.157-.323 1.454-9.177 5.502-15.787 10.276-15.787 3.598 0 6.786 3.753 8.762 9.529l.02.062.005.007a21.516 21.516 0 011.629 2.006h-.001l.031.041h.001c.028.084.052.17.08.254l-.075-.301c-5.939-17.583-22.57-30.243-42.158-30.243-24.57 0-44.487 19.917-44.487 44.487 0 4.844.774 9.506 2.211 13.846l.006-.025c.283-1.309.621-2.61 1.015-3.897.31-1.003.651-1.997 1.024-2.981"/><path fill="#FFF" d="M262.676 72.62l-1.552 1.736-.004.012a5.7 5.7 0 01-.211.647c-.021.054-.044.105-.067.158a4.56 4.56 0 01-.2.415 3.748 3.748 0 01-.117.208 3.51 3.51 0 01-.525.645c-.046.043-.091.091-.139.129a2.086 2.086 0 01-.376.237 1.578 1.578 0 01-.698.172c-1.41 0-2.553-1.959-2.553-4.375h-5.122l.003.004a165.491 165.491 0 012.808 3.335l.034.041c.896 1.094 1.78 2.198 2.653 3.31l.129.163c.829 1.056 1.647 2.12 2.46 3.186l.237.31a442.91 442.91 0 012.554 3.397l.018.024a44.413 44.413 0 002.333-13.769h-1.649l-.016.015z"/><path fill="#231F20" d="M213.095 52.074l.348-.024a35.29 35.29 0 012.398-.088c2.412 0 4.769.258 7.062.728v1.134-1.134c1.618.381 4.49 1.17 6.623 2.071.895.378 1.774.792 2.636 1.239l.196.107.053.03.269.15.007.004.388.22.035.02a659.663 659.663 0 011.488.85c-.048-.097-.103-.189-.151-.285l-.029-.057c-1.922-3.792-4.88-7.046-8.511-9.266-3.539-2.165-7.669-3.362-11.822-3.362-10.318 0-19.037 6.95-21.887 16.497a38.25 38.25 0 018.93-5.722c3.767-1.721 7.836-2.798 11.967-3.112"/><path fill="none" d="M222.903 53.824v.265"/><path fill="#231F20" d="M246.056 55.214c1.813-1.774 4.238-3.209 6.838-3.209 2.058 0 4.036.833 5.881 2.358v.021-.004c.165.136.327.289.49.437.099.09.199.172.297.265.259.249.515.511.769.786l.015.017-.005-.006-.02-.062c-1.975-5.776-5.163-9.529-8.762-9.529-4.775 0-8.822 6.611-10.276 15.787l.015-.013c1.241-2.465 2.774-4.907 4.758-6.848"/><path fill="#FFF" d="M203.925 113.627c.406.156.819.297 1.231.441a44.365 44.365 0 0014.698 2.5 44.35 44.35 0 0016.615-3.219c.272-.109.537-.229.806-.344.436-.186.869-.376 1.298-.576.383-.178.767-.355 1.145-.543-.091.012-.182.029-.273.039-1.596.18-3.181.19-4.728-.032-9.154-1.316-11.181-5.729-10.891-10.326-.659-.38-1.33-.808-2.011-1.303-7.04-5.107-11.218-10.548-11.218-10.548s5.43 4.191 13.542 7.329c.174.067.337.126.508.19.379-1.31.828-2.556 1.222-3.661l.128-.359a54.995 54.995 0 011.509-3.752c2.046-4.653 4.535-9.16 5.761-14.128l.587-2.775h-5.006v.01l-.002.001.002.041a5.947 5.947 0 01-1.021 3.341 6.023 6.023 0 01-2.63 2.166 5.947 5.947 0 01-2.947.438c-.048-.005-.094-.016-.142-.021a5.8 5.8 0 01-.463-.073c-.042-.009-.083-.022-.125-.032a5.8 5.8 0 01-.462-.123c-.028-.009-.055-.02-.082-.03a6.198 6.198 0 01-.482-.182l-.042-.02a5.852 5.852 0 01-.495-.247l-.008-.004a6.039 6.039 0 01-1.388-1.077l-17.15-4.186h-18.717c-.08.142-.17.279-.249.423-.143.259-.277.522-.415.784a46.016 46.016 0 00-1.298 2.647 48.238 48.238 0 00-1.065 2.543c-.014.038-.031.075-.045.114a47.848 47.848 0 00-2.037 6.879c2.947 8.987 8.68 16.71 16.174 22.153.217.158.448.299.669.454a44.71 44.71 0 003.936 2.468 44.65 44.65 0 005.561 2.6"/><path fill="#9E2155" d="M234.64 99.809c-.068.477-.114.945-.128 1.398a12.265 12.265 0 00.466 3.762c.194.679.436 1.314.708 1.901a14.207 14.207 0 001.189 2.087 14.842 14.842 0 001.059 1.366c.816.939 1.459 1.449 1.459 1.449l.014.042.037.112c.091-.01.182-.028.273-.039 1.984-.249 3.982-.786 5.954-1.495a39.327 39.327 0 002.992-1.203c.3-.138.595-.29.893-.434 10.19-4.927 18.723-13.643 18.723-13.643-12.804 6.291-25.317 6.04-33.639 4.697"/><path fill="#E2066F" d="M259.198 82.641a284.91 284.91 0 00-2.46-3.186l-.129-.163a209.95 209.95 0 00-2.654-3.31l-.033-.041a162.754 162.754 0 00-2.989-3.545 145.469 145.469 0 00-2.386-2.668 97.187 97.187 0 00-2.677-2.814c-.374-.381-.746-.764-1.126-1.138a94.254 94.254 0 00-2.486-2.37 54.356 54.356 0 00-1.134-1.008l-.006.012c.804 2.31 1.722 4.65 2.181 7.059.119.627.218 1.237.299 1.832 1.119 8.339-1.552 13.783-5.796 20.946-.304.513-.616 1.035-.936 1.568-.971 1.618-1.592 3.15-1.952 4.588-.12.48-.211.949-.276 1.407 8.322 1.343 20.836 1.594 33.639-4.698 0 0-2.511-3.69-6.289-8.763a443.068 443.068 0 00-2.555-3.397c-.076-.105-.156-.207-.235-.311"/><path fill="#231F20" d="M239.394 111.771s-.643-.509-1.459-1.449a14.842 14.842 0 01-1.369-1.838 14.207 14.207 0 01-.879-1.615 13.009 13.009 0 01-.708-1.901 12.184 12.184 0 01-.338-5.16c.065-.458.156-.928.276-1.407.36-1.438.982-2.97 1.952-4.589a478.3 478.3 0 00.936-1.568c4.244-7.162 6.915-12.607 5.796-20.946a33.461 33.461 0 00-.299-1.832c-.063.433-.128.806-.195 1.118l-.02.089a5.18 5.18 0 01-.13.492c-1.844 5.455-4.909 9.696-9.084 14.228-.565.614-1.158 1.237-1.765 1.866a219.672 219.672 0 01-3.224 3.266l-1.382 1.37c-.43.426-.996 1.007-1.635 1.678-.395 1.105-.843 2.35-1.222 3.661-.171-.065-.334-.123-.508-.19-8.112-3.137-13.542-7.329-13.542-7.329s4.178 5.441 11.218 10.548c.682.494 1.353.922 2.012 1.302-.291 4.597 1.738 9.01 10.891 10.326 1.548.223 3.132.212 4.728.032l-.037-.113-.013-.039"/></svg>