<svg xmlns="http://www.w3.org/2000/svg" id="Hosting_icons" data-name="Hosting icons" viewBox="0 0 50 50"><defs><style>.cls-2{fill:#bcc0c4}.cls-3{fill:#fff}.cls-4{fill:#5d43ac}.cls-5{fill:#ff775c}.cls-7{fill:#2a5082}</style></defs><circle cx="24.55" cy="28.57" r="17.2" fill="#f0f4f7"/><path class="cls-2" d="M34.05 25l-1.21-.89a4 4 0 00-6.45-4.76l-1.2-.89A5.51 5.51 0 0134.05 25zM15.89 35.66a5.51 5.51 0 01-5.44-4.78 5.51 5.51 0 014.7-6.2l.2 1.48a4 4 0 00-1.87 7.18 4 4 0 003 .78l.2 1.48a4.74 4.74 0 01-.79.06zM28.79 42A5.51 5.51 0 0124 39.25l1.29-.75a4 4 0 007.36-1 4 4 0 00-.39-3l1.29-.75a5.43 5.43 0 01.55 4.17 5.5 5.5 0 01-2.57 3.34 5.42 5.42 0 01-2.74.74z"/><circle class="cls-3" cx="15.61" cy="13.61" r="5.67" transform="rotate(-78.6 15.607 13.61)"/><path class="cls-4" d="M15.61 20A6.42 6.42 0 1122 13.61 6.43 6.43 0 0115.61 20zm0-11.34a4.93 4.93 0 104.92 4.92 4.93 4.93 0 00-4.92-4.89z"/><path class="cls-3" d="M22 43.58a5.68 5.68 0 11-5.67-5.67A5.67 5.67 0 0122 43.58z"/><path class="cls-4" d="M16.28 50a6.42 6.42 0 116.41-6.42A6.43 6.43 0 0116.28 50zm0-11.34a4.92 4.92 0 104.92 4.92 4.93 4.93 0 00-4.92-4.92z"/><circle class="cls-3" cx="42.55" cy="29.33" r="5.67" transform="rotate(-45 42.55 29.335)"/><path class="cls-4" d="M42.55 35.75A6.42 6.42 0 1149 29.33a6.43 6.43 0 01-6.45 6.42zm0-11.34a4.93 4.93 0 104.92 4.92 4.93 4.93 0 00-4.92-4.92z"/><path class="cls-5" d="M4.53 23.73A3.5 3.5 0 118 20.23a3.5 3.5 0 01-3.47 3.5zm0-5.5a2 2 0 102 2 2 2 0 00-2-2zm37.21-4.61h1.5v4.49h-1.5z"/><path class="cls-5" d="M40.25 15.11h4.49v1.5h-4.49z"/><path class="cls-2" d="M15.57 41.28h1.5v4.49h-1.5z"/><path class="cls-2" d="M14.08 42.78h4.49v1.5h-4.49z"/><path class="cls-4" d="M24.73 29.3a.76.76 0 01-.65-.36l-7-11.63a.75.75 0 01.25-1 .76.76 0 011 .26l7 11.63a.75.75 0 01-.26 1 .67.67 0 01-.34.1z"/><path class="cls-4" d="M20.06 37.45a.69.69 0 01-.37-.1.74.74 0 01-.28-1l4.67-8.15a.75.75 0 111.29.75l-4.66 8.14a.76.76 0 01-.65.36z"/><path class="cls-4" d="M38.83 29.86L24.7 29.3a.75.75 0 11.06-1.49l14.1.55a.75.75 0 010 1.5z"/><circle cx="24.6" cy="28.63" r="6.97" transform="rotate(-81 24.604 28.627)" fill="#cad4ff"/><path class="cls-4" d="M24.6 36.34a7.72 7.72 0 117.72-7.72 7.72 7.72 0 01-7.72 7.72zm0-13.94a6.23 6.23 0 106.22 6.22 6.23 6.23 0 00-6.22-6.22zm-9.92-10.77a.84.84 0 11-.84-.84.84.84 0 01.84.84z"/><path class="cls-7" d="M41.44 27a.84.84 0 11-1.68 0 .84.84 0 111.68 0z"/><circle class="cls-3" cx="23.17" cy="3.94" r="3.2" transform="rotate(-13.64 23.147 3.956)"/><path class="cls-4" d="M23.16 7.89A3.95 3.95 0 1125.21.57 4 4 0 0127 3a3.9 3.9 0 01-.46 3 3.88 3.88 0 01-2.43 1.79 3.81 3.81 0 01-.95.1zm0-6.39A2.45 2.45 0 0021.9 6a2.41 2.41 0 001.85.28 2.44 2.44 0 001.51-1.11 2.41 2.41 0 00.28-1.85 2.4 2.4 0 00-1.11-1.51 2.4 2.4 0 00-1.26-.31z"/><path class="cls-4" d="M17.76 10.86a.75.75 0 01-.54-1.27l3.72-3.86a.76.76 0 011.06 0 .75.75 0 010 1.06l-3.7 3.84a.78.78 0 01-.54.23z"/><path class="cls-7" d="M21.71 3.79a.48.48 0 01.16.65.47.47 0 01-.65.16.47.47 0 11.49-.81z"/><path class="cls-4" d="M22.64 25.54a.84.84 0 11-.84-.84.85.85 0 01.84.84z"/></svg>