<svg width="190" height="83" xmlns:xlink="http://www.w3.org/1999/xlink" xmlns="http://www.w3.org/2000/svg"><defs><linearGradient x1="0" y1=".551" x2="1" y2=".551" id="c"><stop offset="0" stop-color="#3E3E5F"/><stop offset="1" stop-color="#1F1F22" stop-opacity="0"/></linearGradient><linearGradient x1=".661" y1=".418" x2="-1.142" y2="1.1" id="d"><stop offset="0" stop-color="#FFF"/><stop offset="1" stop-color="#CFD3E6"/></linearGradient><linearGradient x1="2.981" y1="-.679" x2="-.333" y2=".873" id="e"><stop offset="0" stop-color="#FFF"/><stop offset="1" stop-color="#CFD3E6"/></linearGradient><linearGradient x1=".489" y1=".934" x2=".489" y2="-1.959" id="f"><stop offset="0" stop-color="#FFF"/><stop offset="1" stop-color="#CFD3E6"/></linearGradient><clipPath id="b"><use xlink:href="#a"/></clipPath><path d="M10.948 35.438L92.144.824q.23-.098.467-.172.237-.075.48-.125.244-.05.492-.076.247-.026.496-.028.249-.001.496.022.248.024.492.072.244.048.482.12.238.071.468.167L178.78 35.07q.171.07.335.154.165.082.323.177.159.095.309.201.151.107.294.224.142.117.276.244.133.128.257.264.124.137.237.282.114.146.216.3.102.153.193.314.091.16.169.327.079.167.145.34.066.171.12.348.053.177.093.357t.067.362q.027.183.04.367.013.184.013.368-.001.185-.015.369-.014.183-.041.366-.028.182-.068.362-.041.18-.095.357-.054.176-.121.348t-.146.338q-.08.167-.171.327-.092.16-.195.313-.103.153-.217.298t-.238.282q-.124.136-.258.263-.134.126-.277.243-.143.116-.295.222-.151.106-.31.2-.158.094-.323.176-.165.083-.336.152L95.903 78.221q-.453.185-.933.28-.48.093-.97.092-.49 0-.969-.097-.48-.095-.932-.282l-81.102-33.56q-.169-.07-.333-.152-.164-.083-.321-.177-.157-.094-.307-.2-.15-.104-.292-.22-.142-.117-.275-.243-.133-.126-.257-.261-.123-.136-.236-.28-.114-.145-.216-.297t-.193-.311q-.09-.16-.17-.325-.079-.165-.146-.336-.066-.171-.12-.346-.054-.175-.095-.354-.04-.179-.069-.36-.027-.181-.042-.364-.014-.183-.015-.366-.001-.184.011-.367.013-.182.039-.364.025-.181.064-.36.04-.18.092-.356.052-.175.116-.347.065-.172.142-.338.078-.166.167-.326.089-.16.19-.314.1-.153.212-.298.112-.146.234-.283.122-.137.253-.264.132-.128.273-.245.14-.118.29-.225.148-.107.304-.203.157-.096.32-.18.163-.084.331-.156z" transform="translate(0 4)" id="a"/></defs><use fill="#FAFBFD" fill-opacity=".496" xlink:href="#a"/><g clip-path="url(#b)"><use xlink:href="#a" fill="none" stroke="#000" stroke-opacity=".496" stroke-width="2"/></g><path d="M25.774 0l25.774 11.06-25.774 10.53L0 11.06 25.774 0z" transform="translate(69 33.961)" fill="url(#c)" fill-opacity=".733"/><path d="M0 0l17.15 6.75v10.045l8.466 3.538.158 10.288v10.045L0 30.136V0z" transform="matrix(-1 0 0 1 120.548 10.613)" fill="url(#d)"/><path d="M0 0l8.478 3.285 8.648 3.573.05 10.18 8.756 3.295-.158 10.288v10.045L0 30.136V0z" transform="translate(69 10.613)" fill="url(#e)"/><path d="M24.403 0l27.145 10.613-17.15 6.75-8.466-3.451-8.757 3.612-8.697-3.626L0 10.613 24.403 0z" fill="url(#f)" transform="translate(69)"/><path d="M94.932 13.912l8.478 3.45-8.478 3.298-8.809-3.136 8.81-3.612z" fill="#E2EAFF"/><path d="M94.932 20.66v10.286l8.478-3.538-.013-10.045-8.465 3.297z" fill="#90ADFF"/><path d="M94.932 20.66v10.286l-8.757-3.295-.052-10.127 8.81 3.136zM69 30.708l8.465 3.451v10.046L69 40.749V30.71z" fill="#738BCF"/></svg>