<svg data-name="Warstwa 1" xmlns="http://www.w3.org/2000/svg" xmlns:xlink="http://www.w3.org/1999/xlink" viewBox="0 0 120 120"><defs><linearGradient id="a" x1="-2072.29" y1="48.24" x2="-2138.72" y2=".18" gradientTransform="translate(2166.22 64)" gradientUnits="userSpaceOnUse"><stop offset="0"/><stop offset="1"/></linearGradient><linearGradient id="d" x1="-2100.72" y1="26.69" x2="-2161.22" y2="26.69" gradientTransform="translate(2166.22 64)" gradientUnits="userSpaceOnUse"><stop offset="0" stop-color="#840016"/><stop offset="1" stop-color="#510a18"/></linearGradient><linearGradient id="e" x1="-2278.71" y1="26.64" x2="-2277.75" y2="26.64" gradientTransform="translate(2166.22 64)" gradientUnits="userSpaceOnUse"><stop offset="0" stop-color="#fc2632"/><stop offset="1" stop-color="#f70e28"/></linearGradient><linearGradient id="f" x1="-2072.4" y1="31.8" x2="-2138.76" y2="-16.21" gradientTransform="translate(2166.22 64)" gradientUnits="userSpaceOnUse"><stop offset="0" stop-color="#cb0c18"/><stop offset="1" stop-color="#670a18"/></linearGradient><linearGradient id="g" x1="100.85" y1="99.83" x2="60.43" y2="85.5" gradientTransform="matrix(1 0 0 -1 0 152)" xlink:href="#a"/><linearGradient id="b" x1="87.88" y1="111.08" x2="20.96" y2="87.38" gradientTransform="matrix(1 0 0 -1 0 152)" gradientUnits="userSpaceOnUse"><stop offset=".42" stop-color="#e7e9e9"/><stop offset=".68" stop-color="#b1b4c3"/><stop offset=".88" stop-color="#8f92aa"/><stop offset=".99" stop-color="#8285a1"/></linearGradient><linearGradient id="c" x1="88.05" y1="120.91" x2="18.31" y2="96.21" gradientTransform="matrix(1 0 0 -1 0 152)" gradientUnits="userSpaceOnUse"><stop offset="0" stop-color="#cdd3db"/><stop offset=".59" stop-color="#b7bbca"/><stop offset="1" stop-color="#acb0c2"/></linearGradient><linearGradient id="h" x1="87.88" y1="134.62" x2="20.97" y2="110.92" xlink:href="#b"/><linearGradient id="i" x1="88.05" y1="143.98" x2="18.3" y2="119.27" xlink:href="#c"/><linearGradient id="j" x1="65.26" y1="77.01" x2="22.12" y2="48.55" gradientTransform="matrix(1 0 0 -1 40.15 120)" gradientUnits="userSpaceOnUse"><stop offset="0" stop-color="#cb0c18"/><stop offset=".93" stop-color="#670a18"/></linearGradient><linearGradient id="k" x1="23.2" y1="51.43" x2="76.07" y2="69.61" gradientTransform="matrix(1 0 0 -1 40.15 120)" gradientUnits="userSpaceOnUse"><stop offset="0" stop-color="#cb0c18"/><stop offset="1" stop-color="#f70014"/></linearGradient></defs><path style="isolation:isolate" opacity=".15" fill="url(#a)" d="M5 87.74l55 32 55-32.1-55-32.1-55 32.2z"/><path fill="url(#d)" d="M65.5 97.74L5 71.34v6.6l55 32.1 5.5-12.3z"/><path fill="url(#e)" d="M114.9 77.94v-6.7L60 92.64v17.4l54.9-32.1z"/><path fill="url(#f)" d="M5 71.34l55 32 54.9-32.1L60 39.14 5 71.34z"/><path data-name="Elipsa 1 kopia 2" d="M83.9 70.48l-.39.22-26.39 15.2c-6.76 3.9-17.72 3.91-24.47 0-5.44-3.13-6.5-7.83-3.19-11.59-6.69-4.4-6.39-11.11.9-15.32 5.11-3 12.35-3.92 18.87-2.91a15.23 15.23 0 014.08-3.28c8.45-4.88 22.14-4.88 30.6 0s8.44 12.77-.01 17.68z" style="isolation:isolate" opacity=".3" fill="url(#g)" fill-rule="evenodd"/><path data-name="Elipsa 1 kopia 2-2" d="M84.53 58.25l-.4.22-26.44 15.24c-6.76 3.92-17.72 3.92-24.48 0-3.21-1.85-4.9-4.25-5.05-6.71-.05-1.71 0-5.12 0-6.38A8.21 8.21 0 0125.25 55c-.13-3-.06-10.41 0-14.22 5.11-3 18 2.06 24.55 3.08a15.84 15.84 0 014.09-3.28c8.45-4.88 28.48-10 36.92-5.11.12 7.57.1 11 0 14.3-.18 3.12-2.29 6.15-6.28 8.48z" fill="url(#b)" fill-rule="evenodd"/><path data-name="Elipsa 1 kopia 2-3" d="M84.46 44.6l-.39.22-26.39 15.24C50.92 64 40 64 33.21 60.06c-5.44-3.13-6.5-7.83-3.19-11.59-6.69-4.41-6.39-11.11.9-15.33 5.11-2.94 12.36-3.91 18.86-2.9A15.48 15.48 0 0153.87 27c8.45-4.88 22.14-4.89 30.6 0s8.44 12.72-.01 17.6z" fill="url(#c)" fill-rule="evenodd"/><path data-name="Elipsa 1 kopia 2-4" d="M84.53 34.7l-.4.22-26.44 15.24c-6.76 3.9-17.72 3.91-24.48 0-3.22-1.86-4.9-4.25-5.05-6.69-.05-1.7 0-5.12 0-6.37a8.34 8.34 0 01-2.91-5.62c-.13-3-.06-10.41 0-14.23 5.11-3 18 2.07 24.55 3.09a15.43 15.43 0 014.09-3.28c8.45-4.89 28.48-10 36.92-5.11.12 7.57.1 11 0 14.3-.18 3.08-2.29 6.12-6.28 8.45z" fill="url(#h)" fill-rule="evenodd"/><path data-name="Elipsa 1 kopia 2-5" d="M84.53 21.58l-.4.22L57.69 37c-6.76 3.94-17.69 3.94-24.48 0-5.43-3.14-6.49-7.84-3.19-11.59-6.69-4.41-6.39-11.12.9-15.33C36 7.11 43.28 6.19 49.79 7.2a15.84 15.84 0 014.09-3.28C62.33-1 76-1 84.48 3.92s8.45 12.77.05 17.66z" fill="url(#i)" fill-rule="evenodd"/><path d="M98.82 62A37.3 37.3 0 00102 47.89c0-2.79 3.67-7.53 1.8-8.58-2.23-1.26-7.27-4-8.62-4.5-3.21-1.22-7.32-.66-11.79 2-10.27 6.12-18.6 21-18.6 33.24 0 4.46 1.1 7.94 3 10.28l6.83 3.72z" fill="url(#j)" fill-rule="evenodd"/><path d="M105.71 65.74a37.4 37.4 0 003.13-14.17c0-12.27-8.35-17.24-18.65-11.1S71.54 61.52 71.54 73.78c0 4.47 1.11 8 3 10.31z" fill="url(#k)" fill-rule="evenodd"/><path d="M103.43 57.33a17.65 17.65 0 00.11-1.92c0-8.24-5.61-11.58-12.53-7.46S78.48 62.09 78.48 70.33a14.72 14.72 0 00.08 1.49" stroke-width="2.34" fill="none" stroke="#fff" stroke-linecap="round" stroke-linejoin="round"/><path stroke-width="1.46" fill="none" stroke="#fff" stroke-linecap="round" stroke-linejoin="round" d="M91.67 62.78L83 67.43"/><path data-name="Elipsa 1169" d="M91.75 60.29c1.15-.68 2.08-.13 2.08 1.25a4.76 4.76 0 01-2.08 3.72c-1.15.69-2.09.13-2.09-1.24a4.83 4.83 0 012.09-3.73z" fill="#fff" fill-rule="evenodd"/><path data-name="Kształt 10" d="M48.32 19.06l4.74-2.74 2.09 2a1 1 0 01.29.91 1.33 1.33 0 01-.72.82l-2.17 1.26a1.66 1.66 0 00-.89 1 1.24 1.24 0 00.34 1.22 3 3 0 001 .64 5.3 5.3 0 001.3.28 4.84 4.84 0 001.37-.08 3.43 3.43 0 001.33-.45l1.32-.76a1.61 1.61 0 01.94-.18 1.24 1.24 0 01.81.31l2.28 2.29-1.48.85a10.48 10.48 0 01-3.44 1.22 14.61 14.61 0 01-3.85.21A13.06 13.06 0 0150 27.1a7.48 7.48 0 01-2.8-1.71l-.27-.24a4 4 0 01-1-1.57 2.88 2.88 0 01-.12-1.58 3.49 3.49 0 01.8-1.55 7.43 7.43 0 011.71-1.39zM63.4 25L52 13.65a1 1 0 01-.3-.91 1.31 1.31 0 01.71-.83l4.39-2.53a10.66 10.66 0 013.4-1.21 14.62 14.62 0 017.56.57 7.33 7.33 0 012.78 1.7l.24.23a3.83 3.83 0 011 1.56 2.93 2.93 0 01.13 1.63 4.79 4.79 0 01-2.49 2.92L65.62 19l-2.13-2.09a1 1 0 01-.31-.89 1.32 1.32 0 01.72-.83l1.26-.73c1-.58 1.19-1.48.44-2.19a2.78 2.78 0 00-1-.61 4.85 4.85 0 00-1.31-.27 5.35 5.35 0 00-1.38.09 3.78 3.78 0 00-1.22.43l-2.34 1.35 8.37 8.35a1 1 0 01.29.9 1.28 1.28 0 01-.68.81z" fill="#9195a8" fill-rule="evenodd"/></svg>