<svg xmlns="http://www.w3.org/2000/svg" id="Hosting_icons" data-name="Hosting icons" viewBox="0 0 50 50"><defs><style>.cls-2{fill:#fff}.cls-3{fill:#5d43ac}.cls-4{fill:#e9eaeb}</style></defs><circle cx="25" cy="24.48" r="21.53" fill="#f0f4f7"/><path class="cls-2" d="M40.68 42.67a4.47 4.47 0 00-6.29-5.6 4.32 4.32 0 00-3.81-3H19.47a3.67 3.67 0 00-3.67 3.67v.06a4.28 4.28 0 00-.81-.08 4 4 0 00-3.57 5.85 4 4 0 00-2 3.48 11.43 11.43 0 001.2 3H41l2.22-3.32c.18-1.43-1.05-3.34-2.54-4.06z"/><path class="cls-3" d="M9.16 49.19A4.74 4.74 0 018.65 47a4.85 4.85 0 011.79-3.76 4.69 4.69 0 01-.26-1.56 4.83 4.83 0 014.91-4.81 4.46 4.46 0 014.38-3.66 18.42 18.42 0 001.85-.36 21.57 21.57 0 013.78-.64 17.67 17.67 0 014.08.9 16 16 0 001.68.44 4.47 4.47 0 014 2.43 5.26 5.26 0 016.81 6.3A5.13 5.13 0 0144 46.81l-1.57-.26c.17-1-.85-2.58-2.06-3.16l-.67-.33.28-.69a3.67 3.67 0 00-5.16-4.6l-.89.49-.27-1a2.88 2.88 0 00-2.77-2.12 9.83 9.83 0 01-2.12-.5 17.27 17.27 0 00-3.63-.83 22.32 22.32 0 00-3.44.59 12.89 12.89 0 01-2.19.4 2.88 2.88 0 00-2.88 2.88v1l-.95-.13a2.81 2.81 0 00-.65-.07 3.22 3.22 0 00-3.22 3.22 3.12 3.12 0 00.36 1.46l.34.67-.64.4a3.25 3.25 0 00-1.25 4.24z"/><path class="cls-3" d="M32.92 40.92h-1.59a5.2 5.2 0 015.2-5.2v1.6a3.61 3.61 0 00-3.61 3.6zm6.32 4.5l-.8-1.42a3.62 3.62 0 001.8-3.12h1.6a5.21 5.21 0 01-2.6 4.54zm-26.95.08a5.2 5.2 0 01-1.71-1.78l1.38-.8a3.62 3.62 0 001.19 1.24zm12.62.41h-1.6a5.2 5.2 0 015.2-5.19v1.59a3.6 3.6 0 00-3.6 3.6z"/><path class="cls-3" d="M24.7 43.12a3.59 3.59 0 00-2.7-1.53l.1-1.59a5.16 5.16 0 013.9 2.2zM17.67 40A3.14 3.14 0 0015 38.49v-1.6a4.75 4.75 0 014 2.22z"/><path class="cls-4" d="M34.11 34.08A3.31 3.31 0 0037 30.63V15.72a9.51 9.51 0 00-2.63-6 .82.82 0 00-1.3 0 9.45 9.45 0 00-2.45 6v15.07a3.22 3.22 0 003.49 3.29z"/><path class="cls-3" d="M33.77 34.9a3.89 3.89 0 01-2.63-1 4.15 4.15 0 01-1.36-3.09V15.72a10.18 10.18 0 012.66-6.48 1.67 1.67 0 011.24-.59 1.69 1.69 0 011.25.59 10.16 10.16 0 012.83 6.48v14.91a4.13 4.13 0 01-3.57 4.24 3 3 0 01-.42.03zm-.1-24.65v.05a8.75 8.75 0 00-2.25 5.42v15.07a2.57 2.57 0 00.82 1.91 2.34 2.34 0 001.83.59 2.53 2.53 0 002.13-2.66V15.72a8.58 8.58 0 00-2.43-5.42.13.13 0 00-.1-.05z"/><path class="cls-4" d="M15.77 34.08a3.31 3.31 0 002.85-3.45V15.72a9.42 9.42 0 00-2.49-6 .88.88 0 00-1.34 0 9.49 9.49 0 00-2.55 6v15.07a3.22 3.22 0 003.53 3.29z"/><path class="cls-3" d="M15.43 34.9a3.89 3.89 0 01-2.63-1 4.15 4.15 0 01-1.36-3.09V15.72a10.39 10.39 0 012.75-6.5 1.75 1.75 0 012.54 0 10.24 10.24 0 012.69 6.5v14.91a4.13 4.13 0 01-3.57 4.24 3 3 0 01-.42.03zm0-24.66a.12.12 0 00-.08 0A8.77 8.77 0 0013 15.72v15.07a2.55 2.55 0 00.83 1.91 2.31 2.31 0 001.82.59 2.53 2.53 0 002.13-2.66V15.72a8.78 8.78 0 00-2.28-5.44.1.1 0 00-.04-.04z"/><path d="M24.6.8c-3.73 0-6.78 4.2-6.78 8.27v23.39h13.56V9.07C31.38 5 28.33.8 24.6.8z" fill="#cad4ff"/><path class="cls-3" d="M32.18 33.26H17V9.07C17 4.79 20.27 0 24.6 0s7.58 4.79 7.58 9.07zm-13.56-1.6h12V9.07c0-3.45-2.61-7.48-6-7.48s-6 4-6 7.48z"/><path class="cls-2" d="M28.19 26.88v-8a9.68 9.68 0 00-1.6-5.58 2.32 2.32 0 00-3.18 0 9.68 9.68 0 00-1.6 5.58v8l-5.58 4.78v2.39h5.58l1.6 1.6h3.23l1.55-1.6h5.58v-2.39z"/><path class="cls-3" d="M27 36.44h-3.92l-1.6-1.59h-6.05v-3.56L21 26.51V18.9a10.49 10.49 0 011.73-6 2.64 2.64 0 012.26-1 2.64 2.64 0 012.26 1 10.49 10.49 0 011.73 6v7.61l5.58 4.78v3.56h-6zm-3.23-1.59h2.53l1.55-1.59H33V32l-5.58-4.79V18.9a9 9 0 00-1.46-5.14 1.28 1.28 0 00-.93-.27 1.28 1.28 0 00-.93.27 9 9 0 00-1.46 5.14v8.34L17 32v1.23h5.11z"/><path class="cls-3" d="M24.2 28.47h1.59v3.99H24.2zm-.4-11.16h2.39v.8H23.8z"/><path d="M33 48.41a3.18 3.18 0 113.18-3.18A3.18 3.18 0 0133 48.41zm0-4.77a1.59 1.59 0 101.58 1.59A1.59 1.59 0 0033 43.64zM7.07 41.63A1.59 1.59 0 118.65 40a1.59 1.59 0 01-1.58 1.63zm0-2.37a.79.79 0 10.79.78.79.79 0 00-.79-.78z" fill="#ff775c"/></svg>