<svg xmlns="http://www.w3.org/2000/svg" xmlns:xlink="http://www.w3.org/1999/xlink" width="190" height="123"><defs><linearGradient id="e" x1="-172.74" y1="330.88" x2="-171.74" y2="330.88" gradientTransform="matrix(77.32 0 0 -32.33 13409.4 10785.66)" gradientUnits="userSpaceOnUse"><stop offset="0" stop-color="#3e3e5f"/><stop offset="1" stop-color="#1f1f22" stop-opacity="0"/></linearGradient><linearGradient id="a" x1="-179.82" y1="333.87" x2="-182.02" y2="333.04" gradientTransform="matrix(-31.72 0 0 -60.2 -5599.9 20147.09)" gradientUnits="userSpaceOnUse"><stop offset="0" stop-color="#fff"/><stop offset="1" stop-color="#cfd3e6"/></linearGradient><linearGradient id="f" x1="-166.19" y1="335.2" x2="-170.23" y2="333.31" gradientTransform="matrix(31.92 0 0 -60.04 5473.39 20093.24)" xlink:href="#a"/><linearGradient id="g" x1="-171.79" y1="326.95" x2="-171.79" y2="330.48" gradientTransform="matrix(63.44 0 0 -21.59 10990.68 7084.1)" xlink:href="#a"/><linearGradient id="b" x1="-192.72" y1="329.9" x2="-190.45" y2="328.95" gradientTransform="matrix(-10.43 0 0 -26.74 -1895.76 8844.43)" gradientUnits="userSpaceOnUse"><stop offset="0" stop-color="#82a9fb"/><stop offset="1" stop-color="#90adff"/></linearGradient><linearGradient id="h" x1="-210.3" y1="309.48" x2="-208.03" y2="308.53" gradientTransform="matrix(-5.22 0 0 -7.9 -961.61 2509.82)" xlink:href="#b"/><linearGradient id="c" x1="-161.64" y1="329.95" x2="-158.1" y2="328.98" gradientTransform="matrix(10.84 0 0 -26.54 1806.41 8777.44)" gradientUnits="userSpaceOnUse"><stop offset="0" stop-color="#acbfe9"/><stop offset="1" stop-color="#325fe1"/></linearGradient><linearGradient id="i" x1="99.18" y1="99.94" x2="145.72" y2="92.3" gradientTransform="matrix(1 0 0 -1 0 124)" gradientUnits="userSpaceOnUse"><stop offset="0" stop-color="#e2ebfc"/><stop offset="1" stop-color="#90adff"/></linearGradient><linearGradient id="j" x1="123.46" y1="95.21" x2="146.27" y2="79.82" gradientTransform="matrix(1 0 0 -1 0 124)" xlink:href="#b"/><linearGradient id="k" x1="97.29" y1="96.88" x2="134.26" y2="81.37" gradientTransform="matrix(1 0 0 -1 0 124)" xlink:href="#c"/><clipPath id="d"><path d="M11 79.44l81.14-34.62.47-.17.48-.12a4.9 4.9 0 011-.11h.5a2.89 2.89 0 01.49.07 4.21 4.21 0 01.48.12 4.34 4.34 0 01.47.16l82.76 34.27.33.15.33.18.31.2.29.23.28.24c.08.09.17.17.25.27a3.22 3.22 0 01.24.28 2.32 2.32 0 01.22.3c.06.1.13.2.19.31s.12.22.17.33a3.45 3.45 0 01.14.34 2.06 2.06 0 01.12.35 3.57 3.57 0 01.1.35l.06.37v1.46c0 .12 0 .25-.07.37l-.09.35-.12.35-.15.34c0 .11-.11.22-.17.33l-.2.31c-.06.1-.14.2-.21.3l-.24.28-.26.26-.28.25-.29.22a3.28 3.28 0 01-.31.2l-.32.17-.34.16-82.87 33.93a5 5 0 01-.93.28 5.27 5.27 0 01-1.94 0 5 5 0 01-.93-.29L11 88.66l-.34-.16-.32-.17-.3-.2-.3-.22-.27-.25a3.19 3.19 0 01-.26-.26 3.11 3.11 0 01-.21-.28 3.15 3.15 0 01-.22-.29l-.19-.32a3.24 3.24 0 01-.17-.32 3.49 3.49 0 01-.15-.34l-.12-.34a2.37 2.37 0 01-.15-.36c0-.12 0-.24-.07-.36a2.2 2.2 0 010-.36v-1.1L8 83a13.94 13.94 0 01.21-.7c0-.12.09-.23.14-.34l.17-.33c.06-.1.12-.21.19-.31l.21-.3.24-.28a3.07 3.07 0 01.25-.26l.27-.25L10 80a3.37 3.37 0 01.31-.21l.32-.18.33-.15z" fill="none"/></clipPath></defs><path d="M11 79.44l81.14-34.62.47-.17.48-.12a4.9 4.9 0 011-.11h.5a2.89 2.89 0 01.49.07 4.21 4.21 0 01.48.12 4.34 4.34 0 01.47.16l82.76 34.27.33.15.33.18.31.2.29.23.28.24c.08.09.17.17.25.27a3.22 3.22 0 01.24.28 2.32 2.32 0 01.22.3c.06.1.13.2.19.31s.12.22.17.33a3.45 3.45 0 01.14.34 2.06 2.06 0 01.12.35 3.57 3.57 0 01.1.35l.06.37v1.46c0 .12 0 .25-.07.37l-.09.35-.12.35-.15.34c0 .11-.11.22-.17.33l-.2.31c-.06.1-.14.2-.21.3l-.24.28-.26.26-.28.25-.29.22a3.28 3.28 0 01-.31.2l-.32.17-.34.16-82.87 33.93a5 5 0 01-.93.28 5.27 5.27 0 01-1.94 0 5 5 0 01-.93-.29L11 88.66l-.34-.16-.32-.17-.3-.2-.3-.22-.27-.25a3.19 3.19 0 01-.26-.26 3.11 3.11 0 01-.21-.28 3.15 3.15 0 01-.22-.29l-.19-.32a3.24 3.24 0 01-.17-.32 3.49 3.49 0 01-.15-.34l-.12-.34a2.37 2.37 0 01-.15-.36c0-.12 0-.24-.07-.36a2.2 2.2 0 010-.36v-1.1L8 83a13.94 13.94 0 01.21-.7c0-.12.09-.23.14-.34l.17-.33c.06-.1.12-.21.19-.31l.21-.3.24-.28a3.07 3.07 0 01.25-.26l.27-.25L10 80a3.37 3.37 0 01.31-.21l.32-.18.33-.15z" fill="#fafbfd" fill-opacity=".496"/><g clip-path="url(#d)"><path d="M11 79.44l81.14-34.62.47-.17.48-.12a4.9 4.9 0 011-.11h.5a2.89 2.89 0 01.49.07 4.21 4.21 0 01.48.12 4.34 4.34 0 01.47.16l82.76 34.27.33.15.33.18.31.2.29.23.28.24c.08.09.17.17.25.27a3.22 3.22 0 01.24.28 2.32 2.32 0 01.22.3c.06.1.13.2.19.31s.12.22.17.33a3.45 3.45 0 01.14.34 2.06 2.06 0 01.12.35 3.57 3.57 0 01.1.35l.06.37v1.46c0 .12 0 .25-.07.37l-.09.35-.12.35-.15.34c0 .11-.11.22-.17.33l-.2.31c-.06.1-.14.2-.21.3l-.24.28-.26.26-.28.25-.29.22a3.28 3.28 0 01-.31.2l-.32.17-.34.16-82.87 33.93a5 5 0 01-.93.28 5.27 5.27 0 01-1.94 0 5 5 0 01-.93-.29L11 88.66l-.34-.16-.32-.17-.3-.2-.3-.22-.27-.25a3.19 3.19 0 01-.26-.26 3.11 3.11 0 01-.21-.28 3.15 3.15 0 01-.22-.29l-.19-.32a3.24 3.24 0 01-.17-.32 3.49 3.49 0 01-.15-.34l-.12-.34a2.37 2.37 0 01-.15-.36c0-.12 0-.24-.07-.36a2.2 2.2 0 010-.36v-1.1L8 83a13.94 13.94 0 01.21-.7c0-.12.09-.23.14-.34l.17-.33c.06-.1.12-.21.19-.31l.21-.3.24-.28a3.07 3.07 0 01.25-.26l.27-.25L10 80a3.37 3.37 0 01.31-.21l.32-.18.33-.15z" fill="none" stroke="#000" stroke-opacity=".496" stroke-width="2"/></g><path d="M91.66 73l38.66 16.56-38.66 15.77L53 89.56z" fill-opacity=".733" fill="url(#e)"/><path d="M130.32 15.82L104.6 26v27.34l-12.7 5.32-.24 15.45v15.08l38.66-15.81z" fill="url(#a)"/><path d="M53 16l25.69 10.31.07 27.4 13.14 4.95-.24 15.45v15.08L53 73.38z" fill="url(#f)"/><path d="M89.6 0l40.72 15.94-25.73 10.13-12.69-5.18-13.14 5.42-13-5.44L53 15.94z" fill="url(#g)"/><path d="M91.9 20.89l12.72 5.18L91.9 31l-13.21-4.7z" fill="#cbd9ff"/><path d="M91.9 31v27.66l12.71-5.32V26.07z" fill="url(#b)"/><path d="M124 68.72V76l6.36-2.59v-7z" fill="url(#h)"/><path d="M91.9 31v27.66l-13.13-4.95-.08-27.4z" fill="url(#c)"/><path d="M57.64 26.07h0l3.29 5.48h0l-3.29 3.29h0M64.22 37l7.57 2.65" fill="none" stroke="#738bcf" stroke-linecap="square" stroke-miterlimit="50" stroke-width="2"/><path d="M133.37 24.79l12.23 5-12.23 4.77-12.7-4.56z" fill="url(#i)" opacity=".7"/><path d="M133.38 34.55v14.88l12.23-5.12V29.78z" fill="url(#j)"/><path d="M133.37 34.55v14.88l-12.63-4.77-.07-14.66z" fill="url(#k)"/><path d="M58.57 54l12.23 5-12.23 4.79-12.71-4.54z" fill="#df7279"/><path d="M58.57 63.79v14.87l12.23-5.11V59.02z" fill="#ff8b92"/><path d="M58.57 63.78v14.88l-12.63-4.77-.08-14.64z" fill="#f2444e"/></svg>