<svg xmlns="http://www.w3.org/2000/svg" width="283.465" height="141.732" viewBox="7.984 0.992 283.465 141.732"><g fill="#04759B"><path d="M23.162 72.153c0 21.621 12.436 40.274 30.618 49.036L28.014 50.061c-3.015 6.925-4.852 14.273-4.852 22.092zm91.382-2.732c0-6.689-2.544-11.493-4.616-14.979-2.779-4.616-5.276-8.29-5.276-12.907 0-5.087 3.91-9.656 9.185-9.656h.707c-9.656-8.997-22.563-14.273-36.836-14.273-19.077.236-35.658 9.892-45.55 24.636h3.439c5.747 0 14.508-.707 14.508-.707 3.015-.236 3.203 4.145.471 4.616 0 0-3.015.471-6.218.471l19.784 58.928 11.965-35.658-8.526-23.27c-3.015-.236-5.747-.471-5.747-.471-3.015-.236-2.544-4.616.236-4.616 0 0 8.997.707 14.273.707 5.747 0 14.508-.707 14.508-.707 3.015-.236 3.203 4.145.471 4.616 0 0-3.015.471-6.218.471l19.784 58.692 5.511-18.182c2.308-7.583 4.145-12.906 4.145-17.711z"/><path d="M78.651 77.005l-16.345 47.434c4.852 1.366 10.127 2.308 15.403 2.308 6.453 0 12.436-1.131 18.182-3.015-.236-.236-.236-.471-.471-.707l-16.769-46.02zm46.963-30.853c.236 1.837.471 3.674.471 5.511 0 5.511-.942 11.729-4.145 19.548l-16.581 48.094c16.11-9.421 27.179-26.944 27.179-47.199-.282-9.373-2.779-18.135-6.924-25.954z"/><path d="M77.709 8.657c-34.951 0-63.497 28.545-63.497 63.497s28.545 63.544 63.544 63.544 63.497-28.545 63.497-63.544S112.707 8.657 77.709 8.657zm0 124.261c-33.397 0-60.529-27.179-60.529-60.765 0-33.397 27.179-60.529 60.529-60.529s60.529 27.179 60.529 60.529c0 33.633-27.132 60.765-60.529 60.765z"/></g><g fill="#FFF"><path d="M164.894 72.153c0 21.621 12.436 40.274 30.618 49.036l-25.766-71.128c-3.015 6.925-4.852 14.273-4.852 22.092zm91.383-2.732c0-6.689-2.544-11.493-4.616-14.979-2.779-4.616-5.276-8.29-5.276-12.907 0-5.087 3.91-9.656 9.185-9.656h.707c-9.656-8.997-22.563-14.273-36.836-14.273-19.077.236-35.658 9.892-45.55 24.636h3.439c5.747 0 14.508-.707 14.508-.707 3.015-.236 3.203 4.145.471 4.616 0 0-3.015.471-6.218.471l19.784 58.928 11.965-35.658-8.526-23.27c-3.015-.236-5.747-.471-5.747-.471-3.015-.236-2.544-4.616.236-4.616 0 0 8.997.707 14.273.707 5.747 0 14.508-.707 14.508-.707 3.015-.236 3.203 4.145.471 4.616 0 0-3.015.471-6.218.471l19.784 58.692 5.511-18.182c2.308-7.583 4.145-12.906 4.145-17.711z"/><path d="M220.383 77.005l-16.345 47.434c4.852 1.366 10.127 2.308 15.403 2.308 6.453 0 12.436-1.131 18.182-3.015-.236-.236-.236-.471-.471-.707l-16.769-46.02zm46.963-30.853c.236 1.837.471 3.674.471 5.511 0 5.511-.942 11.729-4.145 19.548l-16.581 48.094c16.11-9.421 27.179-26.944 27.179-47.199-.282-9.373-2.779-18.135-6.924-25.954z"/><path d="M219.441 8.657c-34.951 0-63.497 28.545-63.497 63.497s28.545 63.544 63.544 63.544 63.497-28.545 63.497-63.544S254.44 8.657 219.441 8.657zm0 124.261c-33.397 0-60.529-27.179-60.529-60.765 0-33.397 27.179-60.529 60.529-60.529s60.529 27.179 60.529 60.529c0 33.633-27.132 60.765-60.529 60.765z"/></g></svg>