<svg xmlns="http://www.w3.org/2000/svg" id="Hosting_icons" data-name="Hosting icons" viewBox="0 0 38 38"><defs><style>.cls-1{fill:#5d43ac}</style></defs><path class="cls-1" d="M11.39 19.16a6.62 6.62 0 01-1.11-.39v-1.2a4.65 4.65 0 002.18.65 1.28 1.28 0 00.77-.2.67.67 0 00.3-.59.64.64 0 00-.17-.44 1.35 1.35 0 00-.4-.3c-.17-.08-.4-.18-.7-.29a7.82 7.82 0 01-1-.43 2.16 2.16 0 01-.66-.59 1.65 1.65 0 01-.27-1 1.7 1.7 0 01.61-1.38 2.61 2.61 0 011.68-.49 3.9 3.9 0 011 .11 3.6 3.6 0 01.89.31v1.18a3.7 3.7 0 00-1.83-.53 1.49 1.49 0 00-.77.17.55.55 0 00-.28.5.57.57 0 00.29.5 5.28 5.28 0 00.89.4 10 10 0 011 .45 2 2 0 01.7.63 1.87 1.87 0 01.32 1.05 1.84 1.84 0 01-.63 1.47 2.55 2.55 0 01-1.69.53 5.12 5.12 0 01-1.12-.12zm6.02 0a6.73 6.73 0 01-1.12-.39v-1.2a4.68 4.68 0 002.18.65 1.33 1.33 0 00.78-.2.67.67 0 00.3-.59.64.64 0 00-.17-.44 1.28 1.28 0 00-.41-.3 6.89 6.89 0 00-.69-.29 7.82 7.82 0 01-1-.43 2 2 0 01-.66-.59 1.65 1.65 0 01-.27-1A1.67 1.67 0 0117 13a2.59 2.59 0 011.67-.49 4 4 0 011 .11 3.6 3.6 0 01.89.31v1.18a3.73 3.73 0 00-1.84-.53 1.48 1.48 0 00-.76.17.58.58 0 000 1 5.11 5.11 0 00.88.4 10.3 10.3 0 011 .45 2 2 0 01.7.63 1.79 1.79 0 01.31 1.05 1.84 1.84 0 01-.63 1.47 2.54 2.54 0 01-1.68.53 5.12 5.12 0 01-1.13-.12zM26.66 13a2.58 2.58 0 011.1 1.14 3.77 3.77 0 01.38 1.73 3.81 3.81 0 01-.38 1.74 2.56 2.56 0 01-1.1 1.13 3.48 3.48 0 01-1.73.4h-2.41v-6.5h2.41a3.48 3.48 0 011.73.36zm-.33 4.49a2.36 2.36 0 00.5-1.62 2.36 2.36 0 00-.5-1.62 1.79 1.79 0 00-1.4-.55h-1.17v4.34h1.17a1.79 1.79 0 001.4-.51z"/><path d="M11.64 5.33a1.27 1.27 0 11-1.27-1.27 1.27 1.27 0 011.27 1.27zm17.36 0a1.27 1.27 0 11-1.27-1.27A1.27 1.27 0 0129 5.33zm-.9 26.9h-4.48a.79.79 0 100 1.57h4.48a.79.79 0 000-1.57z" fill="#ff775c"/><path class="cls-1" d="M30.15 0H7.85A2.75 2.75 0 005.1 2.74v32A3.25 3.25 0 008.35 38h21.3a3.25 3.25 0 003.25-3.24v-32A2.75 2.75 0 0030.15 0zM7.85 1.57h22.3a1.17 1.17 0 011.18 1.17V28.5a3.19 3.19 0 00-1.68-.5H8.35a3.19 3.19 0 00-1.68.47V2.74a1.17 1.17 0 011.18-1.17zm23.48 33.19a1.68 1.68 0 01-1.68 1.67H8.35a1.68 1.68 0 01-1.68-1.67v-3.49a1.68 1.68 0 011.68-1.68h21.3a1.68 1.68 0 011.68 1.68v3.49z"/></svg>